<svg xmlns:dc="http://purl.org/dc/elements/1.1/" xmlns:cc="http://creativecommons.org/ns#" xmlns:rdf="http://www.w3.org/1999/02/22-rdf-syntax-ns#" xmlns:svg="http://www.w3.org/2000/svg" xmlns="http://www.w3.org/2000/svg" xmlns:sodipodi="http://sodipodi.sourceforge.net/DTD/sodipodi-0.dtd" xmlns:inkscape="http://www.inkscape.org/namespaces/inkscape" width="200" height="150" viewBox="0 0 200 150" version="1.1" inkscape:version="0.91" sodipodi:docname="warwick_external.svg">
<style>
.s0{
	fill-rule:nonzero;
	fill:#fff;
}

</style>  <defs>
    <clipPath clipPathUnits="userSpaceOnUse">
      <path inkscape:connector-curvature="0" d="m322.24 40.82 97.91 0 0 66.88-97.91 0 0-66.88z"/>
    </clipPath>
  </defs>
  <sodipodi:namedview pagecolor="#ffffff" bordercolor="#666666" borderopacity="1" inkscape:pageopacity="0" inkscape:pageshadow="2" inkscape:zoom="2.8" inkscape:cx="103.95" inkscape:cy="116.79" inkscape:document-units="px" inkscape:current-layer="layer1" showgrid="false" inkscape:window-width="1728" inkscape:window-height="1089" inkscape:window-x="170" inkscape:window-y="1432" inkscape:window-maximized="1" units="px" inkscape:showpageshadow="false"/>
  <metadata>
    <rdf:RDF>
      <cc:Work rdf:about="">
        <dc:format>
          image/svg+xml
        </dc:format>
        <dc:type rdf:resource="http://purl.org/dc/dcmitype/StillImage"/>
      </cc:Work>
    </rdf:RDF>
  </metadata>
  <g inkscape:label="Layer 1" inkscape:groupmode="layer" transform="translate(0,-902.36219)">
    <g transform="matrix(1.570296,0,0,1.570296,-949.29677,-768.74603)">
      <g transform="matrix(1.25,0,0,-1.25,711.86591,1133.2871)">
        <path inkscape:connector-curvature="0" d="m0 0 1.51 0-5.82 5.5 5.5 5.51-1.45 0L-5.88 5.5 0 0Zm-21.92 0 1.05 0 0 11.01-1.05 0 0-11.01zm0 0 1.05 0 0 11.01-1.05 0 0-11.01zm0 0 1.05 0 0 11.01-1.05 0 0-11.01zm-38.33 0 3.23 11.01-1.08 0-2.79-9.75-2.6 8.82-1.34 0-2.64-8.82-2.79 9.75-1.08 0 3.23-11.01 1.29 0 2.67 8.86 2.62-8.86 1.29 0z" class="s0"/>
      </g>
      <path inkscape:connector-curvature="0" d="m703.79 1119.53-1.31 0 0 13.76 1.31 0 0-13.76z" class="s0"/>
      <g transform="matrix(1.25,0,0,-1.25,642.61978,1128.4672)">
        <path inkscape:connector-curvature="0" d="M0 0 2.63 6.03 5.25 0 0 0Zm3.12 7.15-0.99 0-4.92-11.01 1.1 0 1.27 2.92 6.08 0 1.27-2.92 1.1 0L3.12 7.15Z" class="s0"/>
      </g>
      <g transform="matrix(1.25,0,0,-1.25,642.61978,1128.4672)">
        <path inkscape:connector-curvature="0" d="M0 0 2.63 6.03 5.25 0 0 0Zm3.12 7.15-0.99 0-4.92-11.01 1.1 0 1.27 2.92 6.08 0 1.27-2.92 1.1 0L3.12 7.15Z" class="s0"/>
      </g>
      <g transform="matrix(1.25,0,0,-1.25,678.21566,1133.2871)">
        <path inkscape:connector-curvature="0" d="m0 0 3.23 11.01-1.08 0-2.79-9.75-2.55 8.82-1.43 0-2.59-8.82-2.79 9.75-1.08 0L-7.86 0-6.58 0-3.91 8.86-1.29 0 0 0Z" class="s0"/>
      </g>
      <g transform="matrix(1.25,0,0,-1.25,204.02916,1200.1657)">
        <g clip-path="url(#clipPath4190-1)">
          <g transform="translate(393.0706,54.1555)">
            <path inkscape:connector-curvature="0" d="m0 0c-2.94 0-4.77 2.12-4.77 4.85l0 0c0 0 0 0 0 0 0 2.74 1.83 4.88 4.77 4.88 1.13 0 2.53-0.53 3.33-1.71L4.18 8.66C3.12 10.09 1.66 10.66 0 10.66c-3.44 0-5.82-2.45-5.82-5.81 0-3.36 2.39-5.78 5.82-5.78 1.66 0 3.12 0.57 4.18 2.01L3.33 1.71C2.53 0.53 1.13 0 0 0" class="s0"/>
          </g>
          <g transform="translate(364.4196,58.6281)">
            <path inkscape:connector-curvature="0" d="m0 0c1.23 0.21 2.77 0.86 2.77 2.89 0 2.89-2.92 2.99-3.81 2.99l-3.15 0 0-11.01 1.04 0 0 10.08 2.25 0c2.21 0 2.62-1.3 2.62-2.06 0-0.76-0.43-2.05-2.62-2.06l-1.2 0 0-0.93 1.06 0 3.02-5.03 1.19 0L0 0Z" class="s0"/>
          </g>
          <g transform="translate(379.3201,90.756)">
            <path inkscape:connector-curvature="0" d="m0 0c-0.09 0.14-0.24 0.23-0.42 0.23-0.28 0-0.5-0.22-0.5-0.5 0-0.28 0.22-0.5 0.5-0.5 0.18 0 0.33 0.09 0.42 0.23L0 0Z" class="s0"/>
          </g>
          <g transform="translate(359.5525,94.2987)">
            <path inkscape:connector-curvature="0" d="m0 0c0-0.15 0.12-0.27 0.27-0.27 0.15 0 0.27 0.12 0.27 0.27 0 0.15-0.12 0.27-0.27 0.27C0.12 0.27 0 0.15 0 0" class="s0"/>
          </g>
          <g transform="translate(361.5554,94.2987)">
            <path inkscape:connector-curvature="0" d="M0 0C0-0.1 0.08-0.18 0.19-0.18 0.29-0.18 0.37-0.1 0.37 0 0.37 0.1 0.29 0.19 0.19 0.19 0.08 0.19 0 0.1 0 0" class="s0"/>
          </g>
          <g transform="translate(363.5359,94.2987)">
            <path inkscape:connector-curvature="0" d="m0 0c0-0.06 0.05-0.11 0.11-0.11 0.06 0 0.11 0.05 0.11 0.11 0 0.06-0.05 0.11-0.1 0.11C0.05 0.11 0 0.06 0 0" class="s0"/>
          </g>
          <g transform="translate(357.5609,94.2987)">
            <path inkscape:connector-curvature="0" d="m0 0c0-0.2 0.16-0.36 0.36-0.36 0.2 0 0.36 0.16 0.36 0.36 0 0.2-0.16 0.36-0.36 0.36C0.16 0.36 0 0.2 0 0" class="s0"/>
          </g>
          <g transform="translate(351.8118,94.2987)">
            <path inkscape:connector-curvature="0" d="m0 0c0-0.22 0.18-0.41 0.41-0.41 0.23 0 0.41 0.18 0.41 0.41 0 0.23-0.18 0.41-0.41 0.41C0.18 0.41 0 0.23 0 0" class="s0"/>
          </g>
          <g transform="translate(350.8157,93.3631)">
            <path inkscape:connector-curvature="0" d="m0 0c0-0.26 0.21-0.47 0.47-0.47 0.26 0 0.47 0.21 0.47 0.47 0 0.26-0.21 0.47-0.47 0.47C0.21 0.47 0 0.26 0 0" class="s0"/>
          </g>
          <g transform="translate(352.7017,93.3631)">
            <path inkscape:connector-curvature="0" d="m0 0c0-0.26 0.21-0.47 0.47-0.47 0.26 0 0.47 0.21 0.47 0.47 0 0.26-0.21 0.47-0.47 0.47C0.21 0.47 0 0.26 0 0" class="s0"/>
          </g>
          <g transform="translate(354.5879,93.3631)">
            <path inkscape:connector-curvature="0" d="m0 0c0-0.26 0.21-0.47 0.47-0.47 0.26 0 0.47 0.21 0.47 0.47 0 0.26-0.21 0.47-0.47 0.47C0.21 0.47 0 0.26 0 0" class="s0"/>
          </g>
          <g transform="translate(356.5497,93.3631)">
            <path inkscape:connector-curvature="0" d="m0 0c0-0.23 0.19-0.42 0.42-0.42 0.23 0 0.42 0.19 0.42 0.42 0 0.23-0.19 0.42-0.42 0.42C0.19 0.42 0 0.23 0 0" class="s0"/>
          </g>
          <g transform="translate(358.4811,93.3631)">
            <path inkscape:connector-curvature="0" d="m0 0c0-0.22 0.18-0.41 0.41-0.41 0.23 0 0.41 0.18 0.41 0.41 0 0.23-0.18 0.41-0.41 0.41C0.18 0.41 0 0.23 0 0" class="s0"/>
          </g>
          <g transform="translate(360.4126,93.3631)">
            <path inkscape:connector-curvature="0" d="m0 0c0-0.2 0.16-0.36 0.36-0.36 0.2 0 0.36 0.16 0.36 0.36 0 0.2-0.16 0.36-0.36 0.36C0.16 0.36 0 0.2 0 0" class="s0"/>
          </g>
          <g transform="translate(362.3589,93.3631)">
            <path inkscape:connector-curvature="0" d="m0 0c0-0.18 0.15-0.33 0.33-0.33 0.18 0 0.33 0.15 0.33 0.33 0 0.18-0.15 0.33-0.33 0.33C0.15 0.33 0 0.18 0 0" class="s0"/>
          </g>
          <g transform="translate(364.2917,93.3631)">
            <path inkscape:connector-curvature="0" d="m0 0c0-0.17 0.14-0.3 0.3-0.3 0.17 0 0.31 0.14 0.31 0.31 0 0.17-0.14 0.3-0.3 0.3C0.14 0.3 0 0.17 0 0" class="s0"/>
          </g>
          <g transform="translate(366.1969,93.3631)">
            <path inkscape:connector-curvature="0" d="m0 0c0-0.17 0.14-0.3 0.3-0.3 0.17 0 0.31 0.14 0.31 0.31 0 0.17-0.14 0.3-0.3 0.3C0.14 0.3 0 0.17 0 0" class="s0"/>
          </g>
          <g transform="translate(368.1021,93.3631)">
            <path inkscape:connector-curvature="0" d="m0 0c0-0.17 0.14-0.3 0.31-0.3 0.17 0 0.3 0.14 0.3 0.31 0 0.17-0.14 0.3-0.3 0.3C0.14 0.3 0 0.17 0 0" class="s0"/>
          </g>
          <g transform="translate(370.0073,93.3631)">
            <path inkscape:connector-curvature="0" d="m0 0c0-0.17 0.14-0.3 0.3-0.3 0.17 0 0.31 0.14 0.31 0.31 0 0.17-0.14 0.3-0.3 0.3C0.14 0.3 0 0.17 0 0" class="s0"/>
          </g>
          <g transform="translate(370.9407,92.4288)">
            <path inkscape:connector-curvature="0" d="m0 0c0-0.17 0.14-0.3 0.3-0.3 0.17 0 0.3 0.14 0.3 0.31 0 0.17-0.14 0.3-0.3 0.3C0.14 0.3 0 0.17 0 0" class="s0"/>
          </g>
          <g transform="translate(369.0442,92.4288)">
            <path inkscape:connector-curvature="0" d="m0 0c0-0.17 0.14-0.3 0.3-0.3 0.17 0 0.31 0.14 0.31 0.31 0 0.17-0.14 0.3-0.3 0.3C0.14 0.3 0 0.17 0 0" class="s0"/>
          </g>
          <g transform="translate(367.141,92.4288)">
            <path inkscape:connector-curvature="0" d="m0 0c0-0.17 0.14-0.3 0.3-0.3 0.17 0 0.31 0.14 0.31 0.31 0 0.17-0.14 0.3-0.3 0.3C0.14 0.3 0 0.17 0 0" class="s0"/>
          </g>
          <g transform="translate(365.2379,92.4288)">
            <path inkscape:connector-curvature="0" d="m0 0c0-0.17 0.14-0.3 0.31-0.3 0.17 0 0.3 0.14 0.3 0.31 0 0.17-0.14 0.3-0.3 0.3C0.14 0.3 0 0.17 0 0" class="s0"/>
          </g>
          <g transform="translate(363.3092,92.4288)">
            <path inkscape:connector-curvature="0" d="m0 0c0-0.18 0.15-0.33 0.33-0.33 0.18 0 0.33 0.15 0.33 0.33 0 0.18-0.15 0.33-0.33 0.33C0.15 0.33 0 0.18 0 0" class="s0"/>
          </g>
          <g transform="translate(361.3649,92.4288)">
            <path inkscape:connector-curvature="0" d="m0 0c0-0.2 0.16-0.36 0.36-0.36 0.2 0 0.37 0.16 0.37 0.37 0 0.2-0.16 0.36-0.36 0.36C0.16 0.36 0 0.2 0 0" class="s0"/>
          </g>
          <g transform="translate(359.4273,92.4288)">
            <path inkscape:connector-curvature="0" d="m0 0c0-0.22 0.18-0.4 0.4-0.4 0.22 0 0.4 0.18 0.4 0.4 0 0.22-0.18 0.4-0.4 0.4C0.18 0.4 0 0.22 0 0" class="s0"/>
          </g>
          <g transform="translate(357.483,92.4288)">
            <path inkscape:connector-curvature="0" d="m0 0c0-0.24 0.19-0.43 0.43-0.43 0.24 0 0.43 0.19 0.43 0.43 0 0.24-0.19 0.43-0.43 0.43C0.19 0.43 0 0.24 0 0" class="s0"/>
          </g>
          <g transform="translate(355.5523,92.4288)">
            <path inkscape:connector-curvature="0" d="m0 0c0-0.26 0.21-0.47 0.47-0.47 0.26 0 0.47 0.21 0.47 0.47 0 0.26-0.21 0.47-0.47 0.47C0.21 0.47 0 0.26 0 0" class="s0"/>
          </g>
          <g transform="translate(353.6286,92.4288)">
            <path inkscape:connector-curvature="0" d="m0 0c0-0.27 0.22-0.49 0.49-0.49 0.27 0 0.49 0.22 0.49 0.49 0 0.27-0.22 0.49-0.49 0.49C0.22 0.49 0 0.27 0 0" class="s0"/>
          </g>
          <g transform="translate(351.739,92.4288)">
            <path inkscape:connector-curvature="0" d="m0 0c0-0.27 0.22-0.49 0.49-0.49 0.27 0 0.49 0.22 0.49 0.49 0 0.27-0.22 0.49-0.49 0.49C0.22 0.49 0 0.27 0 0" class="s0"/>
          </g>
          <g transform="translate(354.5835,91.4807)">
            <path inkscape:connector-curvature="0" d="m0 0c0-0.27 0.22-0.49 0.49-0.49 0.27 0 0.49 0.22 0.49 0.49 0 0.27-0.22 0.49-0.49 0.49C0.22 0.49 0 0.27 0 0" class="s0"/>
          </g>
          <g transform="translate(356.5073,91.4807)">
            <path inkscape:connector-curvature="0" d="m0 0c0-0.26 0.21-0.47 0.47-0.47 0.26 0 0.47 0.21 0.47 0.47 0 0.26-0.21 0.47-0.47 0.47C0.21 0.47 0 0.26 0 0" class="s0"/>
          </g>
          <g transform="translate(358.4449,91.4807)">
            <path inkscape:connector-curvature="0" d="m0 0c0-0.23 0.19-0.42 0.42-0.42 0.23 0 0.42 0.19 0.42 0.42 0 0.23-0.19 0.42-0.42 0.42C0.19 0.42 0 0.23 0 0" class="s0"/>
          </g>
          <g transform="translate(360.4102,91.4807)">
            <path inkscape:connector-curvature="0" d="m0 0c0-0.21 0.17-0.38 0.38-0.38 0.21 0 0.38 0.17 0.38 0.38 0 0.21-0.17 0.38-0.38 0.38C0.17 0.38 0 0.21 0 0" class="s0"/>
          </g>
          <g transform="translate(362.3574,91.4807)">
            <path inkscape:connector-curvature="0" d="m0 0c0-0.19 0.15-0.34 0.34-0.34 0.19 0 0.34 0.15 0.34 0.34 0 0.19-0.15 0.34-0.34 0.34C0.15 0.34 0 0.19 0 0" class="s0"/>
          </g>
          <g transform="translate(364.2634,91.4807)">
            <path inkscape:connector-curvature="0" d="m0 0c0-0.19 0.15-0.34 0.34-0.34 0.19 0 0.34 0.15 0.34 0.34 0 0.19-0.15 0.34-0.34 0.34C0.15 0.34 0 0.19 0 0" class="s0"/>
          </g>
          <g transform="translate(366.2108,91.4807)">
            <path inkscape:connector-curvature="0" d="M0 0C0-0.16 0.13-0.29 0.3-0.29 0.46-0.29 0.59-0.16 0.59 0 0.59 0.16 0.46 0.3 0.3 0.3 0.13 0.3 0 0.16 0 0" class="s0"/>
          </g>
          <g transform="translate(368.1168,91.4807)">
            <path inkscape:connector-curvature="0" d="m0 0c0-0.16 0.13-0.29 0.3-0.29 0.16 0 0.3 0.13 0.3 0.3 0 0.16-0.13 0.3-0.3 0.3C0.13 0.3 0 0.16 0 0" class="s0"/>
          </g>
          <g transform="translate(370.023,91.4807)">
            <path inkscape:connector-curvature="0" d="M0 0C0-0.16 0.13-0.29 0.3-0.29 0.46-0.29 0.59-0.16 0.59 0 0.59 0.16 0.46 0.3 0.3 0.3 0.13 0.3 0 0.16 0 0" class="s0"/>
          </g>
          <g transform="translate(372.7937,90.4638)">
            <path inkscape:connector-curvature="0" d="M0 0C0-0.19 0.16-0.35 0.35-0.35 0.54-0.35 0.7-0.19 0.7 0 0.7 0.19 0.54 0.35 0.35 0.35 0.16 0.35 0 0.19 0 0" class="s0"/>
          </g>
          <g transform="translate(369.0118,90.4638)">
            <path inkscape:connector-curvature="0" d="m0 0c0-0.19 0.16-0.35 0.35-0.35 0.19 0 0.35 0.16 0.35 0.35 0 0.19-0.16 0.35-0.35 0.35C0.16 0.35 0 0.19 0 0" class="s0"/>
          </g>
          <g transform="translate(367.1156,90.4638)">
            <path inkscape:connector-curvature="0" d="m0 0c0-0.19 0.15-0.34 0.34-0.34 0.19 0 0.34 0.15 0.34 0.34 0 0.19-0.15 0.34-0.34 0.34C0.15 0.34 0 0.19 0 0" class="s0"/>
          </g>
          <g transform="translate(365.2054,90.505)">
            <path inkscape:connector-curvature="0" d="m0 0c0-0.19 0.15-0.34 0.34-0.34 0.19 0 0.34 0.15 0.34 0.34 0 0.19-0.15 0.34-0.34 0.34C0.15 0.34 0 0.19 0 0" class="s0"/>
          </g>
          <g transform="translate(363.2545,90.5188)">
            <path inkscape:connector-curvature="0" d="m0 0c0-0.21 0.17-0.38 0.38-0.38 0.21 0 0.38 0.17 0.38 0.38 0 0.21-0.17 0.38-0.38 0.38C0.17 0.38 0 0.21 0 0" class="s0"/>
          </g>
          <g transform="translate(359.3934,90.505)">
            <path inkscape:connector-curvature="0" d="m0 0c0-0.24 0.19-0.43 0.43-0.43 0.24 0 0.43 0.19 0.43 0.43 0 0.24-0.19 0.43-0.43 0.43C0.19 0.43 0 0.24 0 0" class="s0"/>
          </g>
          <g transform="translate(358.3832,89.5636)">
            <path inkscape:connector-curvature="0" d="m0 0c0-0.27 0.22-0.48 0.48-0.48 0.27 0 0.48 0.22 0.48 0.48 0 0.27-0.22 0.48-0.48 0.48C0.22 0.48 0 0.27 0 0" class="s0"/>
          </g>
          <g transform="translate(360.3069,89.5636)">
            <path inkscape:connector-curvature="0" d="m0 0c0-0.25 0.2-0.45 0.45-0.45 0.25 0 0.45 0.2 0.45 0.45 0 0.25-0.2 0.45-0.45 0.45C0.2 0.45 0 0.25 0 0" class="s0"/>
          </g>
          <g transform="translate(359.3728,88.611)">
            <path inkscape:connector-curvature="0" d="m0 0c0-0.25 0.2-0.45 0.45-0.45 0.25 0 0.45 0.2 0.45 0.45 0 0.25-0.2 0.45-0.45 0.45C0.2 0.45 0 0.25 0 0" class="s0"/>
          </g>
          <g transform="translate(361.2963,88.611)">
            <path inkscape:connector-curvature="0" d="m0 0c0-0.25 0.2-0.45 0.45-0.45 0.25 0 0.45 0.2 0.45 0.45 0 0.25-0.2 0.45-0.45 0.45C0.2 0.45 0 0.25 0 0" class="s0"/>
          </g>
          <g transform="translate(363.1653,88.611)">
            <path inkscape:connector-curvature="0" d="m0 0c0-0.25 0.2-0.45 0.45-0.45 0.25 0 0.45 0.2 0.45 0.45 0 0.25-0.2 0.45-0.45 0.45C0.2 0.45 0 0.25 0 0" class="s0"/>
          </g>
          <g transform="translate(365.1073,88.611)">
            <path inkscape:connector-curvature="0" d="m0 0c0-0.25 0.2-0.45 0.45-0.45 0.25 0 0.45 0.2 0.45 0.45 0 0.25-0.2 0.45-0.45 0.45C0.2 0.45 0 0.25 0 0" class="s0"/>
          </g>
          <g transform="translate(366.9585,88.5779)">
            <path inkscape:connector-curvature="0" d="m0 0c0-0.28 0.23-0.51 0.51-0.51 0.28 0 0.51 0.23 0.51 0.51 0 0.28-0.23 0.51-0.51 0.51C0.23 0.51 0 0.28 0 0" class="s0"/>
          </g>
          <g transform="translate(362.291,89.5636)">
            <path inkscape:connector-curvature="0" d="m0 0c0-0.22 0.18-0.4 0.4-0.4 0.22 0 0.4 0.18 0.4 0.4 0 0.22-0.18 0.4-0.4 0.4C0.18 0.4 0 0.22 0 0" class="s0"/>
          </g>
          <g transform="translate(364.1734,89.5636)">
            <path inkscape:connector-curvature="0" d="m0 0c0-0.22 0.18-0.4 0.4-0.4 0.22 0 0.4 0.18 0.4 0.4 0 0.22-0.18 0.4-0.4 0.4C0.18 0.4 0 0.22 0 0" class="s0"/>
          </g>
          <g transform="translate(366.111,89.5418)">
            <path inkscape:connector-curvature="0" d="m0 0c0-0.22 0.18-0.4 0.4-0.4 0.22 0 0.4 0.18 0.4 0.4 0 0.22-0.18 0.4-0.4 0.4C0.18 0.4 0 0.22 0 0" class="s0"/>
          </g>
          <g transform="translate(367.9468,89.5418)">
            <path inkscape:connector-curvature="0" d="m0 0c0-0.25 0.21-0.46 0.46-0.46 0.25 0 0.46 0.21 0.46 0.46 0 0.25-0.2 0.46-0.46 0.46C0.21 0.46 0 0.25 0 0" class="s0"/>
          </g>
          <g transform="translate(369.857,89.5418)">
            <path inkscape:connector-curvature="0" d="m0 0c0-0.25 0.21-0.46 0.46-0.46 0.25 0 0.46 0.21 0.46 0.46 0 0.25-0.2 0.46-0.46 0.46C0.21 0.46 0 0.25 0 0" class="s0"/>
          </g>
          <g transform="translate(358.359,87.6483)">
            <path inkscape:connector-curvature="0" d="m0 0c0-0.29 0.23-0.52 0.52-0.52 0.29 0 0.52 0.23 0.52 0.52 0 0.29-0.23 0.52-0.52 0.52C0.23 0.52 0 0.29 0 0" class="s0"/>
          </g>
          <g transform="translate(360.283,87.6483)">
            <path inkscape:connector-curvature="0" d="m0 0c0-0.29 0.23-0.52 0.52-0.52 0.29 0 0.52 0.23 0.52 0.52 0 0.29-0.23 0.52-0.52 0.52C0.23 0.52 0 0.29 0 0" class="s0"/>
          </g>
          <g transform="translate(362.1792,87.6483)">
            <path inkscape:connector-curvature="0" d="m0 0c0-0.29 0.23-0.52 0.52-0.52 0.29 0 0.52 0.23 0.52 0.52 0 0.29-0.23 0.52-0.52 0.52C0.23 0.52 0 0.29 0 0" class="s0"/>
          </g>
          <g transform="translate(357.4419,90.5185)">
            <path inkscape:connector-curvature="0" d="m0 0c0-0.26 0.21-0.47 0.47-0.47 0.26 0 0.47 0.21 0.47 0.47 0 0.26-0.21 0.47-0.47 0.47C0.21 0.47 0 0.26 0 0" class="s0"/>
          </g>
          <g transform="translate(361.3238,90.5256)">
            <path inkscape:connector-curvature="0" d="m0 0c0-0.22 0.18-0.4 0.4-0.4 0.22 0 0.4 0.18 0.4 0.4 0 0.22-0.18 0.4-0.4 0.4C0.18 0.4 0 0.22 0 0" class="s0"/>
          </g>
          <g transform="translate(353.7281,94.2987)">
            <path inkscape:connector-curvature="0" d="m0 0c0-0.22 0.18-0.41 0.41-0.41 0.23 0 0.41 0.18 0.41 0.41 0 0.23-0.18 0.41-0.41 0.41C0.18 0.41 0 0.23 0 0" class="s0"/>
          </g>
          <g transform="translate(355.6143,94.2987)">
            <path inkscape:connector-curvature="0" d="m0 0c0-0.22 0.18-0.41 0.41-0.41 0.23 0 0.41 0.18 0.41 0.41 0 0.23-0.18 0.41-0.41 0.41C0.18 0.41 0 0.23 0 0" class="s0"/>
          </g>
          <g transform="translate(365.0913,87.7339)">
            <path inkscape:connector-curvature="0" d="m0 0c0 0.22-0.18 0.41-0.4 0.41l-0.17 0C-0.8 0.41-0.98 0.22-0.98 0l0-0.17c0-0.22 0.18-0.4 0.41-0.4l0.42 0C-0.07-0.58 0-0.51 0-0.42L0 0Z" class="s0"/>
          </g>
          <g transform="translate(357.4565,88.4637)">
            <path inkscape:connector-curvature="0" d="m0 0c0-0.17 0.14-0.31 0.31-0.31l0.31 0c0.17 0 0.31 0.14 0.31 0.31l0 0.31c0 0.17-0.14 0.31-0.31 0.31l-0.31 0C0.14 0.62 0 0.48 0 0.31L0 0Z" class="s0"/>
          </g>
          <g transform="translate(355.5526,88.3547)">
            <path inkscape:connector-curvature="0" d="m0 0c0-0.11 0.09-0.2 0.2-0.2l0.53 0c0.11 0 0.2 0.09 0.2 0.2l0 0.53c0 0.11-0.09 0.2-0.2 0.2l-0.53 0C0.09 0.73 0 0.64 0 0.53L0 0Z" class="s0"/>
          </g>
          <g transform="translate(356.4875,87.3772)">
            <path inkscape:connector-curvature="0" d="m0 0c0-0.12 0.1-0.21 0.21-0.21l0.56 0c0.12 0 0.21 0.1 0.21 0.21l0 0.56c0 0.12-0.1 0.22-0.21 0.22l-0.56 0C0.1 0.78 0 0.68 0 0.56L0 0Z" class="s0"/>
          </g>
          <g transform="translate(353.6543,90.282)">
            <path inkscape:connector-curvature="0" d="m0 0c0-0.13 0.11-0.23 0.23-0.23l0.47 0c0.13 0 0.23 0.11 0.23 0.23l0 0.47C0.93 0.6 0.83 0.7 0.7 0.7l-0.47 0C0.11 0.7 0 0.6 0 0.47L0 0Z" class="s0"/>
          </g>
          <g transform="translate(350.8376,91.2352)">
            <path inkscape:connector-curvature="0" d="m0 0c0-0.13 0.11-0.23 0.23-0.23l0.47 0c0.13 0 0.23 0.11 0.23 0.23l0 0.47C0.93 0.6 0.83 0.7 0.7 0.7l-0.47 0C0.11 0.7 0 0.6 0 0.47L0 0Z" class="s0"/>
          </g>
          <g transform="translate(355.5564,90.4224)">
            <path inkscape:connector-curvature="0" d="m0 0c0-0.21 0.17-0.37 0.37-0.37l0.19 0c0.21 0 0.37 0.17 0.37 0.37l0 0.19C0.93 0.39 0.77 0.56 0.56 0.56l-0.19 0C0.17 0.56 0 0.39 0 0.19L0 0Z" class="s0"/>
          </g>
          <g transform="translate(352.7017,91.2872)">
            <path inkscape:connector-curvature="0" d="m0 0c0-0.15 0.13-0.28 0.28-0.28l0.37 0c0.15 0 0.28 0.13 0.28 0.28l0 0.37c0 0.15-0.13 0.28-0.28 0.28l-0.37 0C0.13 0.65 0 0.53 0 0.37L0 0Z" class="s0"/>
          </g>
          <g transform="translate(356.5055,89.4032)">
            <path inkscape:connector-curvature="0" d="m0 0c0-0.17 0.14-0.31 0.31-0.31l0.31 0c0.17 0 0.31 0.14 0.31 0.31l0 0.33c0 0.17-0.14 0.31-0.31 0.31l-0.31 0C0.14 0.64 0 0.5 0 0.33L0 0Z" class="s0"/>
          </g>
          <g transform="translate(354.7719,90.0446)">
            <path inkscape:connector-curvature="0" d="m0 0c-0.09 0-0.16-0.07-0.16-0.16l0-0.61c0-0.09 0.07-0.16 0.16-0.16l0.61 0c0.09 0 0.16 0.07 0.16 0.16l0 0.61C0.77-0.07 0.7 0 0.61 0L0 0Z" class="s0"/>
          </g>
          <g transform="translate(369.465,89.0997)">
            <path inkscape:connector-curvature="0" d="m0 0-0.19 0c-0.2 0-0.37-0.17-0.37-0.37l0-0.37c0-0.07 0.02-0.14 0.06-0.2l0.81 0c0.04 0.06 0.07 0.13 0.07 0.21l0 0.36C0.37-0.17 0.21 0 0 0" class="s0"/>
          </g>
          <g transform="translate(374.7655,92.4062)">
            <path inkscape:connector-curvature="0" d="m0 0c0-0.18 0.14-0.32 0.32-0.32 0.18 0 0.32 0.14 0.32 0.32 0 0.18-0.14 0.32-0.32 0.32C0.14 0.32 0 0.18 0 0" class="s0"/>
          </g>
          <g transform="translate(380.3995,94.2751)">
            <path inkscape:connector-curvature="0" d="m0 0c0-0.21 0.17-0.37 0.38-0.37 0.21 0 0.37 0.17 0.37 0.38 0 0.21-0.17 0.38-0.37 0.38C0.17 0.38 0 0.21 0 0" class="s0"/>
          </g>
          <g transform="translate(373.8106,91.4626)">
            <path inkscape:connector-curvature="0" d="m0 0c0-0.18 0.14-0.32 0.32-0.32 0.18 0 0.32 0.14 0.32 0.32 0 0.18-0.14 0.32-0.32 0.32C0.14 0.32 0 0.18 0 0" class="s0"/>
          </g>
          <g transform="translate(378.6313,94.2841)">
            <path inkscape:connector-curvature="0" d="m0 0c0-0.15 0.12-0.26 0.27-0.26 0.15 0 0.26 0.12 0.26 0.27 0 0.15-0.12 0.27-0.26 0.27C0.12 0.27 0 0.15 0 0" class="s0"/>
          </g>
          <g transform="translate(376.8175,94.2934)">
            <path inkscape:connector-curvature="0" d="M0 0C0-0.09 0.07-0.15 0.15-0.15 0.24-0.15 0.31-0.09 0.31 0 0.31 0.09 0.24 0.16 0.15 0.16 0.07 0.16 0 0.09 0 0" class="s0"/>
          </g>
          <g transform="translate(374.9372,94.2934)">
            <path inkscape:connector-curvature="0" d="M0 0C0-0.07 0.06-0.12 0.13-0.12 0.19-0.12 0.25-0.07 0.25 0 0.25 0.07 0.19 0.13 0.13 0.13 0.06 0.13 0 0.07 0 0" class="s0"/>
          </g>
          <g transform="translate(373.8204,93.3681)">
            <path inkscape:connector-curvature="0" d="m0 0c0-0.17 0.14-0.3 0.3-0.3 0.17 0 0.3 0.13 0.3 0.3 0 0.17-0.13 0.3-0.3 0.3C0.14 0.3 0 0.17 0 0" class="s0"/>
          </g>
          <g transform="translate(371.9154,93.3681)">
            <path inkscape:connector-curvature="0" d="m0 0c0-0.17 0.14-0.3 0.3-0.3 0.17 0 0.3 0.13 0.3 0.3 0 0.17-0.13 0.3-0.3 0.3C0.14 0.3 0 0.17 0 0" class="s0"/>
          </g>
          <g transform="translate(371.9226,91.4626)">
            <path inkscape:connector-curvature="0" d="m0 0c0-0.17 0.14-0.3 0.3-0.3 0.17 0 0.3 0.14 0.3 0.3 0 0.17-0.13 0.3-0.3 0.3C0.14 0.3 0 0.17 0 0" class="s0"/>
          </g>
          <g transform="translate(372.8428,92.4072)">
            <path inkscape:connector-curvature="0" d="m0 0c0-0.17 0.14-0.3 0.3-0.3 0.17 0 0.3 0.13 0.3 0.3 0 0.17-0.13 0.3-0.3 0.3C0.14 0.3 0 0.17 0 0" class="s0"/>
          </g>
          <g transform="translate(375.6703,91.4541)">
            <path inkscape:connector-curvature="0" d="m0 0c0-0.2 0.16-0.37 0.37-0.37 0.2 0 0.37 0.16 0.37 0.37 0 0.2-0.16 0.37-0.37 0.37C0.16 0.37 0 0.2 0 0" class="s0"/>
          </g>
          <g transform="translate(376.6227,92.4157)">
            <path inkscape:connector-curvature="0" d="m0 0c0-0.2 0.16-0.37 0.37-0.37 0.2 0 0.37 0.16 0.37 0.37 0 0.2-0.16 0.37-0.37 0.37C0.16 0.37 0 0.2 0 0" class="s0"/>
          </g>
          <g transform="translate(375.7161,93.3503)">
            <path inkscape:connector-curvature="0" d="m0 0c0-0.17 0.14-0.31 0.31-0.31 0.17 0 0.31 0.14 0.31 0.31 0 0.17-0.14 0.31-0.31 0.31C0.14 0.31 0 0.17 0 0" class="s0"/>
          </g>
          <g transform="translate(377.566,93.3503)">
            <path inkscape:connector-curvature="0" d="m0 0c0-0.21 0.17-0.37 0.38-0.37 0.21 0 0.38 0.17 0.38 0.38 0 0.21-0.17 0.38-0.37 0.38C0.17 0.38 0 0.21 0 0" class="s0"/>
          </g>
          <g transform="translate(378.4688,92.4022)">
            <path inkscape:connector-curvature="0" d="m0 0c0-0.24 0.2-0.43 0.44-0.43 0.24 0 0.43 0.2 0.43 0.44 0 0.24-0.19 0.44-0.43 0.44C0.2 0.44 0 0.24 0 0" class="s0"/>
          </g>
          <g transform="translate(377.5067,91.4493)">
            <path inkscape:connector-curvature="0" d="M0 0C0-0.24 0.2-0.43 0.44-0.43 0.68-0.43 0.87-0.24 0.87 0 0.87 0.24 0.68 0.44 0.44 0.44 0.2 0.44 0 0.24 0 0" class="s0"/>
          </g>
          <g transform="translate(376.5448,90.4784)">
            <path inkscape:connector-curvature="0" d="M0 0C0-0.24 0.2-0.43 0.44-0.43 0.68-0.43 0.87-0.24 0.87 0 0.87 0.24 0.68 0.44 0.44 0.44 0.2 0.44 0 0.24 0 0" class="s0"/>
          </g>
          <g transform="translate(374.6989,90.4646)">
            <path inkscape:connector-curvature="0" d="m0 0c0-0.21 0.17-0.38 0.39-0.38 0.21 0 0.38 0.17 0.38 0.38 0 0.21-0.17 0.38-0.38 0.38C0.17 0.38 0 0.21 0 0" class="s0"/>
          </g>
          <g transform="translate(379.3708,93.3503)">
            <path inkscape:connector-curvature="0" d="m0 0c0-0.25 0.2-0.45 0.45-0.45 0.25 0 0.45 0.2 0.45 0.45 0 0.25-0.2 0.45-0.45 0.45C0.2 0.45 0 0.25 0 0" class="s0"/>
          </g>
          <g transform="translate(389.8143,94.2939)">
            <path inkscape:connector-curvature="0" d="m0 0c0-0.25 0.2-0.45 0.45-0.45 0.25 0 0.45 0.2 0.45 0.45 0 0.25-0.2 0.45-0.45 0.45C0.2 0.45 0 0.25 0 0" class="s0"/>
          </g>
          <g transform="translate(391.8095,94.2939)">
            <path inkscape:connector-curvature="0" d="m0 0c0-0.22 0.18-0.39 0.39-0.39 0.22 0 0.39 0.18 0.39 0.39 0 0.22-0.18 0.39-0.39 0.39C0.18 0.39 0 0.22 0 0" class="s0"/>
          </g>
          <g transform="translate(391.9972,92.4022)">
            <path inkscape:connector-curvature="0" d="M0 0C0-0.25 0.21-0.46 0.46-0.46 0.71-0.46 0.92-0.25 0.92 0 0.92 0.25 0.71 0.46 0.46 0.46 0.21 0.46 0 0.25 0 0" class="s0"/>
          </g>
          <g transform="translate(390.9479,93.3503)">
            <path inkscape:connector-curvature="0" d="m0 0c0-0.25 0.21-0.46 0.46-0.46 0.25 0 0.46 0.21 0.46 0.46 0 0.25-0.2 0.46-0.46 0.46C0.21 0.46 0 0.25 0 0" class="s0"/>
          </g>
          <g transform="translate(388.8514,93.3503)">
            <path inkscape:connector-curvature="0" d="m0 0c0-0.27 0.22-0.49 0.49-0.49 0.27 0 0.49 0.22 0.49 0.49 0 0.27-0.22 0.49-0.49 0.49C0.22 0.49 0 0.27 0 0" class="s0"/>
          </g>
          <g transform="translate(387.9132,94.2989)">
            <path inkscape:connector-curvature="0" d="m0 0c0-0.26 0.21-0.47 0.47-0.47 0.26 0 0.47 0.21 0.47 0.47 0 0.26-0.21 0.47-0.47 0.47C0.21 0.47 0 0.26 0 0" class="s0"/>
          </g>
          <g transform="translate(382.2546,94.2778)">
            <path inkscape:connector-curvature="0" d="m0 0c0-0.24 0.2-0.44 0.44-0.44 0.24 0 0.44 0.2 0.44 0.44 0 0.24-0.2 0.44-0.44 0.44C0.2 0.44 0 0.24 0 0" class="s0"/>
          </g>
          <g transform="translate(370.9407,90.4646)">
            <path inkscape:connector-curvature="0" d="m0 0c0-0.21 0.17-0.38 0.38-0.38 0.21 0 0.39 0.17 0.39 0.38 0 0.21-0.17 0.38-0.38 0.38C0.17 0.38 0 0.21 0 0" class="s0"/>
          </g>
          <g transform="translate(387.9117,92.1316)">
            <path inkscape:connector-curvature="0" d="m0 0c0-0.1 0.08-0.19 0.19-0.19l0.57 0c0.1 0 0.19 0.08 0.19 0.19l0 0.58c0 0.1-0.08 0.19-0.19 0.19l-0.57 0C0.08 0.77 0 0.68 0 0.58L0 0Z" class="s0"/>
          </g>
          <g transform="translate(386.9668,93.2391)">
            <path inkscape:connector-curvature="0" d="m0 0c0-0.21 0.17-0.37 0.37-0.37l0.2 0c0.21 0 0.37 0.17 0.37 0.37l0 0.2c0 0.21-0.17 0.37-0.37 0.37l-0.2 0C0.17 0.57 0 0.41 0 0.2L0 0Z" class="s0"/>
          </g>
          <g transform="translate(389.0552,91.318)">
            <path inkscape:connector-curvature="0" d="m0 0c0-0.19 0.15-0.34 0.34-0.34l0.26 0c0.19 0 0.34 0.15 0.34 0.34l0 0.26c0 0.19-0.15 0.34-0.34 0.34l-0.26 0C0.15 0.61 0 0.45 0 0.26L0 0Z" class="s0"/>
          </g>
          <g transform="translate(382.1782,93.5637)">
            <path inkscape:connector-curvature="0" d="m0 0c-0.08 0.16-0.25 0.28-0.44 0.28-0.28 0-0.5-0.22-0.5-0.5 0-0.18 0.1-0.34 0.24-0.42l0.52 0c0.08 0.05 0.14 0.12 0.18 0.2L0 0Z" class="s0"/>
          </g>
          <g transform="translate(381.2369,92.6223)">
            <path inkscape:connector-curvature="0" d="m0 0c-0.08 0.16-0.25 0.28-0.44 0.28-0.28 0-0.5-0.22-0.5-0.5 0-0.21 0.12-0.38 0.3-0.46l0.4 0c0.11 0.05 0.19 0.13 0.25 0.24L0 0Z" class="s0"/>
          </g>
          <g transform="translate(380.0738,91.0078)">
            <path inkscape:connector-curvature="0" d="m0 0c0.1 0.05 0.18 0.14 0.22 0.24l0 0.39c-0.08 0.18-0.25 0.3-0.46 0.3-0.28 0-0.5-0.22-0.5-0.5 0-0.19 0.11-0.35 0.26-0.44L0 0Z" class="s0"/>
          </g>
          <g transform="translate(384.3482,93.8523)">
            <path inkscape:connector-curvature="0" d="M0 0 0.5 0C0.65 0.09 0.74 0.24 0.74 0.43 0.74 0.7 0.52 0.92 0.25 0.92-0.02 0.92-0.25 0.7-0.25 0.43-0.25 0.24-0.15 0.09 0 0" class="s0"/>
          </g>
          <g transform="translate(386.2239,93.8523)">
            <path inkscape:connector-curvature="0" d="M0 0 0.5 0C0.65 0.09 0.74 0.24 0.74 0.43 0.74 0.7 0.52 0.92 0.25 0.92-0.02 0.92-0.25 0.7-0.25 0.43-0.25 0.24-0.15 0.09 0 0" class="s0"/>
          </g>
          <g transform="translate(390.4906,92.895)">
            <path inkscape:connector-curvature="0" d="m0 0c-0.27 0-0.49-0.22-0.49-0.49 0-0.19 0.12-0.36 0.28-0.44l0.41 0c0.17 0.08 0.28 0.24 0.28 0.44C0.49-0.22 0.27 0 0 0" class="s0"/>
          </g>
          <g transform="translate(391.7095,90.9804)">
            <path inkscape:connector-curvature="0" d="m0 0c0.18 0.08 0.3 0.26 0.3 0.46 0 0.28-0.22 0.5-0.5 0.5-0.21 0-0.39-0.13-0.47-0.32l0-0.38C-0.62 0.15-0.52 0.05-0.4 0L0 0Z" class="s0"/>
          </g>
          <g transform="translate(385.7293,93.8134)">
            <path inkscape:connector-curvature="0" d="m0 0-0.39 0c-0.15 0-0.28-0.13-0.28-0.28l0-0.39c0-0.09 0.05-0.18 0.12-0.23l0.71 0c0.07 0.05 0.12 0.13 0.12 0.23l0 0.39C0.28-0.13 0.15 0 0 0" class="s0"/>
          </g>
          <g transform="translate(383.8241,93.8134)">
            <path inkscape:connector-curvature="0" d="m0 0-0.39 0c-0.15 0-0.28-0.13-0.28-0.28l0-0.39c0-0.09 0.05-0.18 0.12-0.23l0.71 0c0.07 0.05 0.12 0.13 0.12 0.23l0 0.39C0.28-0.13 0.15 0 0 0" class="s0"/>
          </g>
          <g transform="translate(372.7554,89.5287)">
            <path inkscape:connector-curvature="0" d="m0 0c0 0.27-0.21 0.48-0.48 0.48-0.26 0-0.48-0.21-0.48-0.48 0-0.16 0.08-0.3 0.2-0.38l0.57 0C-0.08-0.3 0-0.16 0 0" class="s0"/>
          </g>
          <g transform="translate(374.593,89.5287)">
            <path inkscape:connector-curvature="0" d="m0 0c0 0.27-0.21 0.48-0.48 0.48-0.26 0-0.48-0.21-0.48-0.48 0-0.16 0.08-0.3 0.2-0.38l0.57 0C-0.08-0.3 0-0.16 0 0" class="s0"/>
          </g>
          <g transform="translate(378.3994,89.2832)">
            <path inkscape:connector-curvature="0" d="m0 0 0 0.47c-0.09 0.17-0.26 0.28-0.46 0.28-0.28 0-0.52-0.23-0.52-0.52 0-0.15 0.06-0.28 0.16-0.37l0.7 0C-0.07-0.1-0.03-0.05 0 0" class="s0"/>
          </g>
          <g transform="translate(376.5338,89.5117)">
            <path inkscape:connector-curvature="0" d="M0 0C0 0.27-0.22 0.5-0.5 0.5-0.77 0.5-0.99 0.27-0.99 0c0-0.15 0.07-0.28 0.17-0.37l0.66 0C-0.06-0.28 0-0.15 0 0" class="s0"/>
          </g>
          <g transform="translate(346.4372,94.2925)">
            <path inkscape:connector-curvature="0" d="m0 0c0-0.12 0.1-0.23 0.23-0.23 0.13 0 0.23 0.1 0.23 0.23 0 0.13-0.1 0.23-0.23 0.23C0.1 0.23 0 0.13 0 0" class="s0"/>
          </g>
          <g transform="translate(348.1064,94.2925)">
            <path inkscape:connector-curvature="0" d="m0 0c0-0.17 0.14-0.32 0.32-0.32 0.18 0 0.32 0.14 0.32 0.32 0 0.18-0.14 0.32-0.32 0.32C0.14 0.32 0 0.18 0 0" class="s0"/>
          </g>
          <g transform="translate(349.9618,94.2925)">
            <path inkscape:connector-curvature="0" d="m0 0c0-0.21 0.17-0.38 0.38-0.38 0.21 0 0.38 0.17 0.38 0.38 0 0.21-0.17 0.38-0.38 0.38C0.17 0.38 0 0.21 0 0" class="s0"/>
          </g>
          <g transform="translate(348.9511,93.3573)">
            <path inkscape:connector-curvature="0" d="m0 0c0-0.23 0.19-0.42 0.42-0.42 0.23 0 0.42 0.19 0.42 0.42 0 0.23-0.19 0.42-0.42 0.42C0.19 0.42 0 0.23 0 0" class="s0"/>
          </g>
          <g transform="translate(346.998,93.3573)">
            <path inkscape:connector-curvature="0" d="m0 0c0-0.21 0.17-0.38 0.38-0.38 0.21 0 0.38 0.17 0.38 0.38 0 0.21-0.17 0.38-0.38 0.38C0.17 0.38 0 0.21 0 0" class="s0"/>
          </g>
          <g transform="translate(349.849,92.4235)">
            <path inkscape:connector-curvature="0" d="m0 0c0-0.27 0.22-0.49 0.49-0.49 0.27 0 0.49 0.22 0.49 0.49 0 0.27-0.22 0.49-0.49 0.49C0.22 0.49 0 0.27 0 0" class="s0"/>
          </g>
          <g transform="translate(347.8372,92.4235)">
            <path inkscape:connector-curvature="0" d="m0 0c0-0.26 0.21-0.47 0.47-0.47 0.26 0 0.47 0.21 0.47 0.47 0 0.26-0.21 0.47-0.47 0.47C0.21 0.47 0 0.26 0 0" class="s0"/>
          </g>
          <g transform="translate(393.7479,94.2818)">
            <path inkscape:connector-curvature="0" d="m0 0c0-0.18 0.15-0.33 0.33-0.33 0.18 0 0.33 0.15 0.33 0.33 0 0.18-0.15 0.33-0.33 0.33C0.15 0.33 0 0.18 0 0" class="s0"/>
          </g>
          <g transform="translate(392.9832,93.3387)">
            <path inkscape:connector-curvature="0" d="m0 0c0-0.23 0.19-0.41 0.41-0.41 0.23 0 0.41 0.18 0.41 0.41 0 0.23-0.18 0.41-0.41 0.41C0.19 0.41 0 0.23 0 0" class="s0"/>
          </g>
          <g transform="translate(392.8976,91.4434)">
            <path inkscape:connector-curvature="0" d="M0 0C0-0.25 0.21-0.46 0.46-0.46 0.71-0.46 0.92-0.25 0.92 0 0.92 0.25 0.71 0.46 0.46 0.46 0.21 0.46 0 0.25 0 0" class="s0"/>
          </g>
          <g transform="translate(394.9452,93.3342)">
            <path inkscape:connector-curvature="0" d="m0 0c0-0.2 0.16-0.36 0.36-0.36 0.2 0 0.36 0.16 0.36 0.36 0 0.2-0.16 0.36-0.36 0.36C0.16 0.36 0 0.2 0 0" class="s0"/>
          </g>
          <g transform="translate(393.9713,92.4002)">
            <path inkscape:connector-curvature="0" d="M0 0C0-0.24 0.2-0.43 0.44-0.43 0.68-0.43 0.87-0.24 0.87 0 0.87 0.24 0.68 0.44 0.44 0.44 0.2 0.44 0 0.24 0 0" class="s0"/>
          </g>
          <g transform="translate(395.8089,94.2818)">
            <path inkscape:connector-curvature="0" d="m0 0c0-0.12 0.1-0.23 0.23-0.23 0.13 0 0.23 0.1 0.23 0.23 0 0.13-0.1 0.23-0.23 0.23C0.1 0.23 0 0.13 0 0" class="s0"/>
          </g>
          <g transform="translate(349.0195,91.0019)">
            <path inkscape:connector-curvature="0" d="M0 0 0 0 0.65 0C0.73 0.06 0.79 0.16 0.79 0.28l0 0.31c0 0.19-0.15 0.34-0.34 0.34l-0.25 0C0.01 0.93-0.14 0.78-0.14 0.59l0-0.31C-0.14 0.16-0.09 0.06 0 0" class="s0"/>
          </g>
          <g transform="translate(348.8881,90.2779)">
            <path inkscape:connector-curvature="0" d="M0 0 0 0.47C0 0.6-0.1 0.7-0.23 0.7l-0.35 0 0.5-0.88C-0.03-0.13 0-0.07 0 0" class="s0"/>
          </g>
          <g transform="translate(368.382,86.2413)">
            <path inkscape:connector-curvature="0" d="m0 0c-0.27 0-0.49 0.22-0.49 0.49 0 0.27 0.22 0.49 0.49 0.49 0.27 0 0.49-0.22 0.49-0.49C0.49 0.22 0.27 0 0 0m0.14-0.82c-0.12 0-0.22 0.1-0.22 0.22 0 0.12 0.1 0.22 0.22 0.22 0.12 0 0.22-0.1 0.22-0.22 0-0.12-0.1-0.22-0.22-0.22m-0.58-0.88c-0.14 0-0.26 0.12-0.26 0.26 0 0.14 0.12 0.26 0.26 0.26 0.14 0 0.26-0.11 0.26-0.26 0-0.14-0.11-0.26-0.26-0.26M-1.15-2.7c-0.19 0-0.35 0.16-0.35 0.35 0 0.2 0.16 0.35 0.35 0.35 0.2 0 0.35-0.16 0.35-0.35 0-0.19-0.16-0.35-0.35-0.35m-0.77-1.03c-0.22 0-0.39 0.18-0.39 0.4 0 0.22 0.18 0.4 0.4 0.4 0.22 0 0.39-0.18 0.39-0.39 0-0.22-0.18-0.39-0.39-0.39m-0.03-0.76c-0.12 0-0.21 0.09-0.21 0.21 0 0.12 0.09 0.21 0.21 0.21 0.12 0 0.21-0.09 0.21-0.21 0-0.12-0.09-0.21-0.21-0.21m-0.6-0.99c-0.13 0-0.24 0.11-0.24 0.24 0 0.13 0.11 0.24 0.24 0.24 0.13 0 0.24-0.11 0.24-0.24 0-0.13-0.11-0.24-0.24-0.24m-0.61-1.01c-0.17 0-0.31 0.14-0.31 0.31 0 0.17 0.14 0.31 0.31 0.31 0.17 0 0.31-0.14 0.31-0.31 0-0.17-0.14-0.31-0.31-0.31M-3.68-7.41c-0.15 0-0.27 0.12-0.27 0.27 0 0.15 0.12 0.27 0.27 0.27 0.15 0 0.27-0.12 0.27-0.27 0-0.15-0.12-0.27-0.27-0.27m-0.53-0.89c-0.11 0-0.21 0.09-0.21 0.21 0 0.11 0.09 0.21 0.21 0.21 0.11 0 0.21-0.09 0.21-0.2 0-0.11-0.09-0.21-0.2-0.21m-0.52 1.83c-0.17 0-0.31 0.14-0.31 0.31 0 0.17 0.14 0.31 0.31 0.31 0.17 0 0.31-0.14 0.31-0.31 0-0.17-0.14-0.31-0.31-0.31m-0.08-2.76c-0.08 0-0.15 0.07-0.15 0.15 0 0.09 0.07 0.15 0.15 0.15 0.09 0 0.15-0.07 0.15-0.15 0-0.08-0.07-0.15-0.15-0.15m0.1 5.32c0.2 0 0.36-0.16 0.36-0.36 0-0.2-0.16-0.36-0.36-0.36-0.2 0-0.36 0.16-0.36 0.36 0 0.2 0.16 0.36 0.36 0.36m-0.61-4.41c-0.13 0-0.24 0.11-0.24 0.24 0 0.13 0.11 0.24 0.24 0.24 0.13 0 0.24-0.11 0.24-0.24 0-0.13-0.11-0.24-0.24-0.24m-0.63 1.19c0 0.15 0.12 0.27 0.27 0.27 0.15 0 0.27-0.12 0.27-0.27 0-0.15-0.12-0.27-0.27-0.27-0.15 0-0.27 0.12-0.27 0.27m-0.1-2.08c-0.1 0-0.18 0.08-0.18 0.18 0 0.1 0.08 0.18 0.18 0.18 0.1 0 0.18-0.08 0.18-0.18 0-0.1-0.08-0.18-0.18-0.18m-0.57 4.57c-0.2 0-0.36 0.16-0.36 0.36 0 0.2 0.16 0.36 0.36 0.36 0.2 0 0.36-0.16 0.36-0.36 0-0.2-0.16-0.36-0.36-0.36m-0.01-1.87c-0.19 0-0.34 0.16-0.34 0.35 0 0.19 0.16 0.35 0.35 0.35 0.19 0 0.35-0.15 0.35-0.35 0-0.19-0.15-0.34-0.34-0.34m-0.08-1.81c-0.13 0-0.24 0.11-0.24 0.24 0 0.13 0.11 0.24 0.24 0.24 0.13 0 0.24-0.11 0.24-0.24 0-0.13-0.11-0.24-0.24-0.24m0.09 6.34c0.22 0 0.4-0.18 0.4-0.4 0-0.22-0.18-0.4-0.4-0.4-0.22 0-0.4 0.18-0.4 0.4 0 0.22 0.18 0.4 0.4 0.4m0 1.98c0.25 0 0.46-0.21 0.46-0.46 0-0.25-0.21-0.46-0.46-0.46-0.25 0-0.46 0.21-0.46 0.46 0 0.25 0.21 0.46 0.46 0.46m1.31-5.21c0-0.19-0.15-0.35-0.34-0.35-0.19 0-0.34 0.16-0.34 0.35 0 0.19 0.15 0.35 0.35 0.35 0.19 0 0.35-0.15 0.35-0.34m-0.36 1.49c-0.22 0-0.39 0.18-0.39 0.4 0 0.22 0.18 0.4 0.4 0.4 0.22 0 0.4-0.18 0.4-0.39 0-0.22-0.18-0.39-0.39-0.39m0 2.73c0.23 0 0.42-0.19 0.42-0.42 0-0.23-0.19-0.42-0.42-0.42-0.23 0-0.42 0.19-0.42 0.42 0 0.23 0.19 0.42 0.42 0.42m1.36-1.39c0-0.22-0.18-0.4-0.4-0.4-0.22 0-0.4 0.18-0.4 0.4 0 0.22 0.18 0.4 0.4 0.4 0.22 0 0.4-0.18 0.4-0.4m-0.4 2.39c0.25 0 0.46-0.21 0.46-0.46 0-0.25-0.21-0.46-0.46-0.46-0.25 0-0.46 0.21-0.46 0.46 0 0.25 0.21 0.46 0.46 0.46m1.29-5.21c0-0.19-0.15-0.35-0.34-0.35-0.19 0-0.34 0.16-0.34 0.35 0 0.19 0.15 0.35 0.35 0.35 0.19 0 0.35-0.15 0.35-0.34m-0.34 1.49c-0.22 0-0.39 0.18-0.39 0.4 0 0.22 0.18 0.4 0.4 0.4 0.22 0 0.4-0.18 0.4-0.39 0-0.22-0.18-0.39-0.39-0.39m0 2.73c0.23 0 0.42-0.19 0.42-0.42 0-0.23-0.19-0.42-0.42-0.42-0.23 0-0.42 0.19-0.42 0.42 0 0.23 0.19 0.42 0.42 0.42m1.24-3.28c0-0.2-0.16-0.36-0.36-0.36-0.2 0-0.36 0.16-0.36 0.36 0 0.2 0.16 0.36 0.36 0.36 0.2 0 0.36-0.16 0.36-0.36m-0.31 1.49c-0.22 0-0.4 0.18-0.4 0.4 0 0.22 0.18 0.4 0.4 0.4 0.22 0 0.4-0.18 0.4-0.4 0-0.22-0.18-0.4-0.4-0.4m0.02 2.79c0.25 0 0.46-0.21 0.46-0.46 0-0.25-0.21-0.46-0.46-0.46-0.25 0-0.46 0.21-0.46 0.46 0 0.25 0.21 0.46 0.46 0.46m1.34-1.42c0-0.23-0.19-0.42-0.42-0.42-0.23 0-0.42 0.19-0.42 0.42 0 0.23 0.19 0.42 0.42 0.42 0.23 0 0.42-0.19 0.42-0.42m-0.39 2.4c0.27 0 0.49-0.22 0.49-0.49C-1.39 0.22-1.61 0-1.88 0c-0.27 0-0.49 0.22-0.49 0.49 0 0.27 0.22 0.49 0.49 0.49m0.96-0.98c0.25 0 0.46-0.21 0.46-0.46 0-0.25-0.21-0.46-0.46-0.46-0.25 0-0.46 0.21-0.46 0.46 0 0.25 0.21 0.46 0.46 0.46M-7.58-1.84c-0.23 0-0.42 0.19-0.42 0.42 0 0.23 0.19 0.42 0.42 0.42 0.23 0 0.42-0.19 0.42-0.42 0-0.23-0.19-0.42-0.42-0.42m-0.02-1.89c-0.22 0-0.39 0.18-0.39 0.4 0 0.22 0.18 0.4 0.4 0.4 0.22 0 0.4-0.18 0.4-0.39 0-0.22-0.18-0.39-0.39-0.39m-0.01-1.83c-0.19 0-0.35 0.16-0.35 0.35 0 0.19 0.16 0.35 0.35 0.35 0.19 0 0.35-0.15 0.35-0.34 0-0.19-0.15-0.35-0.34-0.35m0.01-1.85c-0.15 0-0.27 0.12-0.27 0.27 0 0.15 0.12 0.27 0.27 0.27 0.15 0 0.27-0.12 0.27-0.27 0-0.15-0.12-0.27-0.27-0.27m-0.08-1.81c-0.1 0-0.18 0.08-0.18 0.18 0 0.1 0.08 0.18 0.18 0.18 0.1 0 0.18-0.08 0.18-0.18 0-0.1-0.08-0.18-0.18-0.18m-0.89 8.3c-0.25 0-0.46 0.21-0.46 0.46 0 0.25 0.21 0.46 0.46 0.46 0.25 0 0.46-0.21 0.46-0.46 0-0.25-0.21-0.46-0.46-0.46m0-1.87c-0.22 0-0.4 0.18-0.4 0.4 0 0.22 0.18 0.4 0.4 0.4 0.22 0 0.4-0.18 0.4-0.4 0-0.22-0.18-0.4-0.4-0.4m0.03-1.85c-0.2 0-0.36 0.16-0.36 0.36 0 0.2 0.16 0.36 0.36 0.36 0.2 0 0.36-0.16 0.36-0.36 0-0.2-0.16-0.36-0.36-0.36m-0.01-1.83c-0.17 0-0.31 0.14-0.31 0.31 0 0.17 0.14 0.31 0.31 0.31 0.17 0 0.31-0.14 0.31-0.31 0-0.17-0.14-0.31-0.31-0.31m0-1.85c-0.13 0-0.24 0.11-0.24 0.24 0 0.13 0.11 0.24 0.24 0.24 0.13 0 0.24-0.11 0.24-0.24 0-0.13-0.11-0.24-0.24-0.24m-0.95 6.48c-0.23 0-0.42 0.19-0.42 0.42 0 0.23 0.19 0.42 0.42 0.42 0.23 0 0.42-0.19 0.42-0.42 0-0.23-0.19-0.42-0.42-0.42M-9.5-3.73c-0.22 0-0.39 0.18-0.39 0.4 0 0.22 0.18 0.4 0.4 0.4 0.22 0 0.4-0.18 0.4-0.39 0-0.22-0.18-0.39-0.39-0.39m0.02-1.83c-0.19 0-0.35 0.16-0.35 0.35 0 0.19 0.16 0.35 0.35 0.35 0.19 0 0.35-0.15 0.35-0.34 0-0.19-0.15-0.35-0.34-0.35m-0.02-1.85c-0.15 0-0.27 0.12-0.27 0.27 0 0.15 0.12 0.27 0.27 0.27 0.15 0 0.27-0.12 0.27-0.27 0-0.15-0.12-0.27-0.27-0.27m-0.15-1.81c-0.1 0-0.18 0.08-0.18 0.18 0 0.1 0.08 0.18 0.18 0.18 0.1 0 0.18-0.08 0.18-0.18 0-0.1-0.08-0.18-0.18-0.18m-0.8 8.3c-0.25 0-0.46 0.21-0.46 0.46 0 0.25 0.21 0.46 0.46 0.46 0.25 0 0.46-0.21 0.46-0.46 0-0.25-0.21-0.46-0.46-0.46m0.02-1.87c-0.22 0-0.4 0.18-0.4 0.4 0 0.22 0.18 0.4 0.4 0.4 0.22 0 0.4-0.18 0.4-0.4 0-0.22-0.18-0.4-0.4-0.4m-0.01-1.85c-0.2 0-0.36 0.16-0.36 0.36 0 0.2 0.16 0.36 0.36 0.36 0.2 0 0.36-0.16 0.36-0.36 0-0.2-0.16-0.36-0.36-0.36m-0.01-1.82c-0.16 0-0.3 0.13-0.3 0.3 0 0.16 0.13 0.3 0.3 0.3 0.16 0 0.3-0.13 0.3-0.3 0-0.16-0.13-0.29-0.3-0.29m0-1.82c-0.11 0-0.2 0.09-0.2 0.2 0 0.11 0.09 0.2 0.2 0.2 0.11 0 0.2-0.09 0.2-0.2 0-0.11-0.09-0.2-0.2-0.2m-0.8 0.88c-0.15 0-0.27 0.12-0.27 0.27 0 0.15 0.12 0.27 0.27 0.27 0.15 0 0.27-0.12 0.27-0.27 0-0.15-0.12-0.27-0.27-0.27m-0.14-1.81c-0.1 0-0.18 0.08-0.18 0.18 0 0.1 0.08 0.18 0.18 0.18 0.1 0 0.18-0.08 0.18-0.18 0-0.1-0.08-0.18-0.18-0.18m-0.35 4c0 0.19 0.16 0.35 0.35 0.35 0.19 0 0.35-0.15 0.35-0.34 0-0.19-0.15-0.35-0.35-0.35-0.19 0-0.34 0.16-0.34 0.35m0.33 2.28c0.22 0 0.4-0.18 0.4-0.39 0-0.22-0.18-0.39-0.39-0.39-0.22 0-0.39 0.18-0.39 0.4 0 0.22 0.18 0.4 0.39 0.4m-0.63-5.32c-0.12 0-0.22 0.1-0.22 0.22 0 0.12 0.1 0.22 0.22 0.22 0.12 0 0.22-0.1 0.22-0.22 0-0.12-0.1-0.22-0.22-0.22m-0.45 2.09c0 0.16 0.13 0.3 0.3 0.3 0.16 0 0.3-0.13 0.3-0.3 0-0.16-0.13-0.29-0.3-0.29-0.16 0-0.3 0.13-0.3 0.3m-0.15-1.18c-0.1 0-0.18 0.08-0.18 0.18 0 0.1 0.08 0.18 0.18 0.18 0.1 0 0.18-0.08 0.18-0.18 0-0.1-0.08-0.18-0.18-0.18m-0.67 5.47c-0.25 0-0.46 0.21-0.46 0.46 0 0.25 0.21 0.46 0.46 0.46 0.25 0 0.46-0.21 0.46-0.46 0-0.25-0.21-0.46-0.46-0.46m0-1.85c-0.22 0-0.39 0.18-0.39 0.4 0 0.22 0.18 0.4 0.4 0.4 0.22 0 0.4-0.18 0.4-0.39 0-0.22-0.18-0.39-0.39-0.39m0.03-1.83c-0.19 0-0.35 0.16-0.35 0.35 0 0.19 0.16 0.35 0.35 0.35 0.19 0 0.35-0.15 0.35-0.34 0-0.19-0.15-0.35-0.34-0.35m0.07-0.91c-0.1 0-0.18 0.08-0.18 0.18 0 0.1 0.08 0.18 0.18 0.18 0.1 0 0.18-0.08 0.18-0.18 0-0.1-0.08-0.18-0.18-0.18m-1.05 3.68c-0.23 0-0.42 0.19-0.42 0.42 0 0.23 0.19 0.42 0.42 0.42 0.23 0 0.42-0.19 0.42-0.42 0-0.23-0.19-0.42-0.42-0.42m0.09-1.75c-0.18 0-0.32 0.14-0.32 0.32 0 0.18 0.14 0.32 0.32 0.32 0.18 0 0.32-0.14 0.32-0.32 0-0.18-0.14-0.32-0.32-0.32m-0.67 0.99c-0.14 0-0.26 0.11-0.26 0.26 0 0.14 0.12 0.26 0.26 0.26 0.14 0 0.26-0.11 0.26-0.25 0-0.14-0.11-0.26-0.26-0.26m-0.92 2.13c0 0.25 0.21 0.46 0.46 0.46 0.25 0 0.46-0.21 0.46-0.46 0-0.25-0.21-0.46-0.46-0.46-0.25 0-0.46 0.21-0.46 0.46m0.27-1.2c-0.1 0-0.18 0.08-0.18 0.18 0 0.1 0.08 0.18 0.18 0.18 0.1 0 0.18-0.08 0.18-0.18 0-0.1-0.08-0.18-0.18-0.18m-1.91 3.19c0 0.16 0.09 0.3 0.22 0.37l0.55 0c0.13-0.07 0.22-0.21 0.22-0.37l0-0.17c0-0.24-0.19-0.43-0.43-0.43l-0.12 0c-0.24 0-0.43 0.19-0.43 0.43l0 0.17zm1.64 0c0 0.16 0.09 0.3 0.22 0.37l0.55 0c0.13-0.07 0.22-0.21 0.22-0.37l0-0.17c0-0.24-0.19-0.43-0.43-0.43l-0.12 0c-0.24 0-0.43 0.19-0.43 0.43l0 0.17zm-0.22 0.37-0.32 0c-0.17 0-0.3 0.14-0.3 0.32l0 0.36c0 0.14 0.09 0.26 0.21 0.3l0.51 0c0.12-0.04 0.21-0.16 0.21-0.3l0-0.36c0-0.17-0.14-0.32-0.3-0.32m-0.24-1.76c-0.22 0-0.39 0.18-0.39 0.4 0 0.22 0.18 0.4 0.4 0.4 0.22 0 0.4-0.18 0.4-0.39 0-0.22-0.18-0.39-0.39-0.39m-1.64 3.67-0.65 0c-0.09 0-0.16 0.07-0.16 0.16l0 0.63c0 0.09 0.07 0.16 0.16 0.16l0.66 0c0.09 0 0.16-0.07 0.16-0.16l0-0.63c0-0.09-0.07-0.16-0.16-0.16m0.24-0.19c0 0.1 0.09 0.19 0.19 0.19l0.58 0c0.1 0 0.19-0.08 0.19-0.19l0-0.57c0-0.1-0.08-0.19-0.19-0.19l-0.58 0c-0.1 0-0.19 0.09-0.19 0.19l0 0.57zm1.94 0c0 0.1 0.09 0.19 0.19 0.19l0.58 0c0.1 0 0.19-0.08 0.19-0.19l0-0.57c0-0.1-0.08-0.19-0.19-0.19l-0.58 0c-0.1 0-0.19 0.09-0.19 0.19l0 0.57zm0.96-1c0 0.14 0.11 0.25 0.25 0.25l0.46 0c0.14 0 0.25-0.11 0.25-0.25l0-0.47c0-0.14-0.11-0.25-0.25-0.25l-0.46 0c-0.14 0-0.25 0.11-0.25 0.25l0 0.47zm0.96-2.13c0-0.28-0.22-0.5-0.5-0.5-0.28 0-0.5 0.22-0.5 0.5 0 0.28 0.22 0.5 0.5 0.5 0.28 0 0.5-0.22 0.5-0.5m0.17 1.4 0.57 0c0.12-0.08 0.21-0.21 0.21-0.37l0-0.17c0-0.24-0.19-0.43-0.43-0.43l-0.12 0c-0.24 0-0.43 0.19-0.43 0.43l0 0.17c0 0.16 0.08 0.29 0.21 0.37m1.53-5.22c0-0.2-0.16-0.36-0.36-0.36-0.2 0-0.36 0.16-0.36 0.36 0 0.2 0.16 0.36 0.36 0.36 0.2 0 0.36-0.16 0.36-0.36m-0.29 1.49c-0.22 0-0.4 0.18-0.4 0.4 0 0.22 0.18 0.4 0.4 0.4 0.22 0 0.4-0.18 0.4-0.4 0-0.22-0.18-0.4-0.4-0.4m0 2.79c0.25 0 0.46-0.21 0.46-0.46 0-0.25-0.21-0.46-0.46-0.46-0.25 0-0.46 0.21-0.46 0.46 0 0.25 0.21 0.46 0.46 0.46m0.95-1c0.23 0 0.42-0.19 0.42-0.42 0-0.23-0.19-0.42-0.42-0.42-0.23 0-0.42 0.19-0.42 0.42 0 0.23 0.19 0.42 0.42 0.42m12.86 2.85 0-0.6C1.45 1.09 1.31 0.95 1.14 0.95l-0.32 0c-0.17 0-0.31 0.14-0.31 0.31l0 0.32c0 0.23-0.16 0.32-0.3 0.32l-0.35 0c-0.18 0-0.33-0.14-0.33-0.32l0-0.38c0-0.14-0.11-0.25-0.25-0.25l-0.43 0c-0.14 0-0.25 0.11-0.25 0.25l0 0.38c0 0.23-0.16 0.32-0.3 0.32l-0.35 0c-0.18 0-0.32-0.14-0.32-0.32l0-0.44c0-0.1-0.08-0.19-0.19-0.19l-0.75 0 0-0.49c0-0.27-0.22-0.49-0.49-0.49l0 0c-0.29 0-0.48 0.2-0.48 0.48l0 0.36c0 0.07-0.06 0.13-0.13 0.13l-0.7 0c-0.07 0-0.12-0.06-0.12-0.12l0-0.36c0-0.26-0.21-0.48-0.48-0.48-0.26 0-0.48 0.21-0.48 0.48l0 0.36c0 0.07-0.06 0.13-0.12 0.13l-0.69 0c-0.07 0-0.12-0.06-0.12-0.12l0-0.36c0-0.26-0.21-0.48-0.48-0.48-0.26 0-0.48 0.21-0.48 0.48l0 0.36c0 0.07-0.06 0.13-0.12 0.13l-0.69 0c-0.07 0-0.12-0.06-0.12-0.12l0-0.38 0 0c0-0.27-0.22-0.49-0.49-0.49-0.27 0-0.49 0.22-0.49 0.49l0 0.38 0 0c0 0.07-0.05 0.13-0.12 0.13l-0.68 0c-0.07 0-0.12-0.06-0.12-0.12l0-0.36c0-0.26-0.22-0.47-0.47-0.47-0.25 0-0.52 0.17-0.52 0.47l0 0.51-0.75 0c-0.13 0-0.17 0.11-0.17 0.21l0 0.67c0 0.04-0.03 0.06-0.07 0.06l-0.72 0c-0.1 0-0.19 0.09-0.19 0.19l0 0.68c0 0.03-0.03 0.06-0.06 0.06l-0.75 0c-0.07 0-0.12 0.06-0.12 0.12l0 0.63c0 0.1-0.08 0.19-0.19 0.19l-0.81 0c0 0 0.05-0.01 0.05-0.09l0-0.7c0-0.07-0.06-0.13-0.13-0.13l-0.71 0c-0.07 0-0.13 0.06-0.13 0.13l0 0.7c0 0.07 0.06 0.13 0.13 0.13l0.71 0c0.05 0 0.11 0.07 0.11 0.13l0 0.62c0 0.09-0.07 0.16-0.16 0.16l-0.63 0c-0.08 0-0.14-0.06-0.15-0.13l0 0 0-0.56c0-0.12-0.09-0.21-0.21-0.21l-0.66 0c-0.09 0-0.16 0.07-0.16 0.16l0 0.53c0 0.13-0.11 0.24-0.24 0.24l-0.51 0c-0.13 0-0.24-0.11-0.24-0.24l0-0.56c0-0.09-0.07-0.15-0.15-0.16l-0.73 0 1.11-1.95c0.07 0.06 0.16 0.1 0.26 0.1l0.21 0c0.21 0 0.37-0.17 0.37-0.37l0-0.21c0-0.2-0.16-0.37-0.35-0.37l9.77-17.2 10.23 18.08-0.6 0z" class="s0"/>
          </g>
          <g transform="translate(393.0551,89.257)">
            <path inkscape:connector-curvature="0" d="m0 0c0-0.09-0.07-0.16-0.16-0.16l-0.65 0c-0.09 0-0.16 0.07-0.16 0.16l0 0.63c0 0.09 0.07 0.16 0.16 0.16l0.65 0C-0.07 0.79 0 0.72 0 0.63L0 0Zm-1.06-0.92c0-0.1-0.08-0.19-0.19-0.19l-0.58 0c-0.1 0-0.19 0.09-0.19 0.19l0 0.57c0 0.1 0.09 0.19 0.19 0.19l0.58 0c0.1 0 0.19-0.08 0.19-0.19l0-0.57zm-0.22-1.69c0-0.24-0.19-0.43-0.43-0.43l-0.12 0c-0.24 0-0.43 0.2-0.43 0.43l0 0.17c0 0.16 0.09 0.3 0.22 0.37l0.55 0c0.13-0.07 0.22-0.21 0.22-0.37l0-0.17zm-0.91-1.05c0-0.18-0.15-0.33-0.33-0.33l-0.25 0c-0.18 0-0.33 0.15-0.33 0.33l0 0.25c0 0.18 0.15 0.33 0.33 0.33l0.25 0c0.18 0 0.33-0.15 0.33-0.33l0-0.25zM-3.59-4.89c-0.25 0-0.46 0.21-0.46 0.46 0 0.25 0.21 0.46 0.46 0.46 0.25 0 0.46-0.21 0.46-0.46 0-0.25-0.21-0.46-0.46-0.46m-0.27-1.78c-0.2 0-0.36 0.16-0.36 0.36 0 0.2 0.16 0.36 0.36 0.36 0.2 0 0.36-0.16 0.36-0.36 0-0.2-0.16-0.36-0.36-0.36m-0.69 0.86c-0.25 0-0.46 0.21-0.46 0.46 0 0.25 0.21 0.46 0.46 0.46 0.25 0 0.46-0.21 0.46-0.46 0-0.25-0.21-0.46-0.46-0.46m-0.25-1.8c-0.2 0-0.36 0.16-0.36 0.36 0 0.2 0.16 0.36 0.36 0.36 0.2 0 0.36-0.16 0.36-0.36 0-0.2-0.16-0.36-0.36-0.36m0.08-0.78c-0.11 0-0.21 0.09-0.21 0.21 0 0.11 0.09 0.21 0.21 0.21 0.11 0 0.21-0.09 0.21-0.21 0-0.11-0.09-0.2-0.2-0.2m-0.62-1.03c-0.15 0-0.27 0.12-0.27 0.27 0 0.15 0.12 0.27 0.27 0.27 0.15 0 0.27-0.12 0.27-0.27 0-0.15-0.12-0.27-0.27-0.27m-0.73 1.24c0 0.19 0.16 0.35 0.35 0.35 0.19 0 0.35-0.15 0.35-0.35 0-0.19-0.15-0.34-0.34-0.34-0.19 0-0.35 0.16-0.35 0.35m0-2.19c-0.15 0-0.27 0.12-0.27 0.27 0 0.15 0.12 0.27 0.27 0.27 0.15 0 0.27-0.12 0.27-0.27 0-0.15-0.12-0.27-0.27-0.27m-0.51 0.93c-0.17 0-0.31 0.14-0.31 0.31 0 0.17 0.14 0.31 0.31 0.31 0.17 0 0.31-0.14 0.31-0.31 0-0.17-0.14-0.31-0.31-0.31m-0.1-1.85c-0.13 0-0.24 0.11-0.24 0.24 0 0.13 0.11 0.24 0.24 0.24 0.13 0 0.24-0.11 0.24-0.24 0-0.13-0.11-0.24-0.24-0.24m0.12 6.34c0.22 0 0.4-0.18 0.4-0.4 0-0.22-0.18-0.4-0.4-0.4-0.22 0-0.4 0.18-0.4 0.4 0 0.22 0.18 0.4 0.4 0.4m0.4 1.48c0-0.22-0.18-0.39-0.39-0.39-0.22 0-0.39 0.18-0.39 0.4 0 0.22 0.18 0.4 0.39 0.4 0.22 0 0.4-0.18 0.4-0.39m-0.4 2.38c0.27 0 0.48-0.21 0.48-0.48 0-0.26-0.21-0.48-0.48-0.48-0.26 0-0.48 0.22-0.48 0.48 0 0.27 0.22 0.48 0.48 0.48m-0.94-1.86c-0.25 0-0.45 0.2-0.45 0.45 0 0.25 0.2 0.45 0.45 0.45 0.25 0 0.45-0.2 0.45-0.45 0-0.25-0.2-0.45-0.45-0.45m0.1-5.56c-0.19 0-0.35 0.16-0.35 0.35 0 0.19 0.16 0.35 0.35 0.35 0.19 0 0.35-0.15 0.35-0.35 0-0.19-0.15-0.34-0.34-0.34m0.06-3.68c-0.11 0-0.21 0.09-0.21 0.21 0 0.11 0.09 0.21 0.21 0.21 0.11 0 0.21-0.09 0.21-0.2 0-0.11-0.09-0.21-0.2-0.21m-0.43 2.11c0 0.15 0.12 0.27 0.27 0.27 0.15 0 0.27-0.12 0.27-0.27 0-0.15-0.12-0.27-0.27-0.27-0.15 0-0.27 0.12-0.27 0.27m-0.15 5.72c0 0.23 0.19 0.42 0.42 0.42 0.23 0 0.42-0.19 0.42-0.42 0-0.23-0.19-0.42-0.42-0.42-0.23 0-0.42 0.19-0.42 0.42m0.03-1.91c0 0.22 0.18 0.4 0.4 0.4 0.22 0 0.39-0.18 0.39-0.39 0-0.22-0.18-0.39-0.39-0.39-0.22 0-0.39 0.18-0.39 0.4m-0.56 4.25c-0.26 0-0.47 0.21-0.47 0.47 0 0.26 0.21 0.47 0.47 0.47 0.26 0 0.47-0.21 0.47-0.47 0-0.26-0.21-0.47-0.47-0.47m-0.4-1.43c0 0.22 0.18 0.4 0.4 0.4 0.22 0 0.4-0.18 0.4-0.39 0-0.22-0.18-0.39-0.39-0.39-0.22 0-0.39 0.18-0.39 0.4m0.39-2.28c-0.22 0-0.4 0.18-0.4 0.4 0 0.22 0.18 0.4 0.4 0.4 0.22 0 0.41-0.18 0.41-0.4 0-0.22-0.18-0.4-0.4-0.4m0.01-1.85c-0.2 0-0.36 0.16-0.36 0.36 0 0.2 0.16 0.36 0.36 0.36 0.2 0 0.36-0.16 0.36-0.36 0-0.2-0.16-0.36-0.36-0.36m-0.01-1.87c-0.19 0-0.35 0.16-0.35 0.35 0 0.19 0.16 0.35 0.35 0.35 0.19 0 0.35-0.15 0.35-0.34 0-0.19-0.15-0.35-0.34-0.35m0-1.81c-0.13 0-0.24 0.11-0.24 0.24 0 0.13 0.11 0.24 0.24 0.24 0.13 0 0.24-0.11 0.24-0.24 0-0.13-0.11-0.24-0.24-0.24M-8.94 0.41c0 0.21 0.17 0.37 0.37 0.37l0.2 0c0.21 0 0.37-0.17 0.37-0.37l0-0.2c0-0.2-0.17-0.37-0.37-0.37l-0.2 0c-0.21 0-0.37 0.17-0.37 0.37l0 0.2zm0 2.03c0 0.14 0.11 0.25 0.25 0.25l0.45 0c0.14 0 0.25-0.11 0.25-0.25l0-0.45c0-0.14-0.11-0.25-0.25-0.25l-0.45 0c-0.14 0-0.25 0.11-0.25 0.25l0 0.45zm-0.48-3.55c-0.27 0-0.48 0.22-0.48 0.49 0 0.27 0.22 0.49 0.49 0.49 0.27 0 0.48-0.22 0.48-0.48 0-0.27-0.22-0.48-0.48-0.48m-0.43-1.4c0 0.23 0.19 0.42 0.42 0.42 0.23 0 0.42-0.19 0.42-0.42 0-0.23-0.19-0.42-0.42-0.42-0.23 0-0.42 0.19-0.42 0.42m0.46-2.29c-0.23 0-0.42 0.19-0.42 0.42 0 0.23 0.19 0.42 0.42 0.42 0.23 0 0.42-0.19 0.42-0.42 0-0.23-0.19-0.42-0.42-0.42m-0.02-1.89c-0.22 0-0.39 0.18-0.39 0.4 0 0.22 0.18 0.4 0.39 0.4 0.22 0 0.4-0.18 0.4-0.39 0-0.22-0.18-0.39-0.39-0.39m-0.01-1.83c-0.19 0-0.34 0.16-0.34 0.35 0 0.19 0.15 0.35 0.35 0.35 0.19 0 0.35-0.15 0.35-0.35 0-0.19-0.15-0.34-0.34-0.34m0.01-1.85c-0.15 0-0.27 0.12-0.27 0.27 0 0.15 0.12 0.27 0.27 0.27 0.15 0 0.27-0.12 0.27-0.27 0-0.15-0.12-0.27-0.27-0.27m-0.09-1.81c-0.1 0-0.18 0.08-0.18 0.18 0 0.1 0.08 0.18 0.18 0.18 0.1 0 0.18-0.08 0.18-0.18 0-0.1-0.08-0.18-0.18-0.18m-0.86 10.13c-0.26 0-0.47 0.21-0.47 0.47 0 0.26 0.21 0.47 0.47 0.47 0.26 0 0.47-0.21 0.47-0.47 0-0.26-0.21-0.47-0.47-0.47m0-1.82c-0.22 0-0.39 0.18-0.39 0.4 0 0.22 0.18 0.4 0.4 0.4 0.22 0 0.4-0.18 0.4-0.39 0-0.22-0.18-0.39-0.39-0.39m-0.01-1.89c-0.22 0-0.4 0.18-0.4 0.4 0 0.22 0.18 0.4 0.4 0.4 0.22 0 0.4-0.18 0.4-0.4 0-0.22-0.18-0.4-0.4-0.4m0.03-1.85c-0.2 0-0.36 0.16-0.36 0.36 0 0.2 0.16 0.36 0.36 0.36 0.2 0 0.36-0.16 0.36-0.36 0-0.2-0.16-0.36-0.36-0.36m-0.01-1.83c-0.17 0-0.31 0.14-0.31 0.31 0 0.17 0.14 0.31 0.31 0.31 0.17 0 0.31-0.14 0.31-0.31 0-0.17-0.14-0.31-0.31-0.31m-0.01-1.85c-0.13 0-0.24 0.11-0.24 0.24 0 0.13 0.11 0.24 0.24 0.24 0.13 0 0.24-0.11 0.24-0.24 0-0.13-0.11-0.24-0.24-0.24m-0.95 6.48c-0.23 0-0.42 0.19-0.42 0.42 0 0.23 0.19 0.42 0.42 0.42 0.23 0 0.42-0.19 0.42-0.42 0-0.23-0.19-0.42-0.42-0.42m0-1.89c-0.22 0-0.39 0.18-0.39 0.4 0 0.22 0.18 0.4 0.4 0.4 0.22 0 0.39-0.18 0.39-0.39 0-0.22-0.18-0.39-0.39-0.39m0.01-1.83c-0.19 0-0.34 0.16-0.34 0.35 0 0.19 0.16 0.35 0.35 0.35 0.19 0 0.35-0.15 0.35-0.35 0-0.19-0.15-0.34-0.35-0.34m-0.02-1.85c-0.15 0-0.27 0.12-0.27 0.27 0 0.15 0.12 0.27 0.27 0.27 0.15 0 0.27-0.12 0.27-0.27 0-0.15-0.12-0.27-0.27-0.27m-0.29-1.81c-0.1 0-0.18 0.08-0.18 0.18 0 0.1 0.08 0.18 0.18 0.18 0.1 0 0.18-0.08 0.18-0.18 0-0.1-0.08-0.18-0.18-0.18m0.7 9.66c0-0.23-0.19-0.42-0.42-0.42-0.23 0-0.42 0.19-0.42 0.42 0 0.23 0.19 0.42 0.42 0.42 0.23 0 0.42-0.19 0.42-0.42m-0.41 2.37c0.27 0 0.48-0.22 0.48-0.48 0-0.27-0.22-0.48-0.48-0.48-0.27 0-0.48 0.22-0.48 0.49 0 0.27 0.22 0.49 0.49 0.49m-0.95-1.9c-0.26 0-0.47 0.21-0.47 0.47 0 0.26 0.21 0.47 0.47 0.47 0.26 0 0.47-0.21 0.47-0.47 0-0.26-0.21-0.47-0.47-0.47m-0.44-1.42c0 0.23 0.19 0.42 0.42 0.42 0.23 0 0.42-0.19 0.42-0.42 0-0.23-0.19-0.42-0.42-0.42-0.23 0-0.42 0.19-0.42 0.42m0.45-2.29c-0.22 0-0.4 0.18-0.4 0.4 0 0.22 0.18 0.4 0.4 0.4 0.22 0 0.4-0.18 0.4-0.4 0-0.22-0.18-0.4-0.4-0.4m0-1.85c-0.2 0-0.36 0.16-0.36 0.36 0 0.2 0.16 0.36 0.36 0.36 0.2 0 0.36-0.16 0.36-0.36 0-0.2-0.16-0.36-0.36-0.36m-0.01-1.82c-0.16 0-0.3 0.13-0.3 0.3 0 0.16 0.13 0.3 0.3 0.3 0.16 0 0.3-0.13 0.3-0.3 0-0.16-0.13-0.3-0.3-0.3m-0.06-1.86c-0.13 0-0.24 0.11-0.24 0.24 0 0.13 0.11 0.24 0.24 0.24 0.13 0 0.24-0.11 0.24-0.24 0-0.13-0.11-0.24-0.24-0.24m0.53 12.23 0 0.64c0 0.09 0.07 0.16 0.16 0.16l0.64 0c0.09 0 0.16-0.07 0.16-0.15l0-0.64c0-0.09-0.07-0.16-0.16-0.16l-0.64 0c-0.08 0-0.16 0.07-0.16 0.16m0.96-0.5c0 0.19 0.15 0.34 0.34 0.34l0.26 0c0.19 0 0.34-0.15 0.34-0.34l0-0.26c0-0.19-0.15-0.34-0.34-0.34l-0.26 0c-0.19 0-0.34 0.16-0.34 0.34l0 0.26zm0.95 0.93c0 0.21 0.17 0.37 0.37 0.37l0.2 0c0.21 0 0.37-0.17 0.37-0.37l0-0.2c0-0.2-0.17-0.37-0.37-0.37l-0.2 0c-0.21 0-0.37 0.17-0.37 0.37l0 0.2zm2.28 0.38 0.2 0c0.21 0 0.37-0.17 0.37-0.37l0-0.2C-7.05 0.97-7.22 0.8-7.43 0.8l-0.2 0c-0.2 0-0.37 0.17-0.37 0.37l0 0.2c0 0.21 0.17 0.37 0.37 0.37m0.62-2.38c0-0.28-0.22-0.5-0.5-0.5-0.28 0-0.5 0.23-0.5 0.5 0 0.28 0.23 0.5 0.5 0.5 0.28 0 0.5-0.23 0.5-0.5m-0.03 1.07c0 0.19 0.16 0.34 0.34 0.34l0.26 0c0.19 0 0.34-0.15 0.34-0.34l0-0.26c0-0.19-0.15-0.34-0.34-0.34l-0.26 0c-0.19 0-0.34 0.16-0.34 0.34l0 0.26zm0.96-7.69c0-0.2-0.16-0.36-0.36-0.36-0.2 0-0.36 0.16-0.36 0.36 0 0.2 0.16 0.36 0.36 0.36 0.2 0 0.36-0.16 0.36-0.36m0 8.77c0 0.12 0.1 0.22 0.22 0.22l0.51 0c0.09 0 0.17-0.05 0.2-0.13l0 0 0-0.68c-0.03-0.08-0.11-0.13-0.2-0.13l-0.51 0c-0.12 0-0.22 0.1-0.22 0.22l0 0.51zm0.54-7.43c0.22 0 0.4-0.18 0.4-0.39 0-0.22-0.18-0.39-0.39-0.39-0.22 0-0.39 0.18-0.39 0.4 0 0.22 0.18 0.4 0.4 0.4m-0.52 3.39c0 0.25 0.2 0.45 0.45 0.45 0.25 0 0.45-0.2 0.45-0.45 0-0.25-0.2-0.45-0.45-0.45-0.25 0-0.45 0.2-0.45 0.45m0.45-1.45c0.23 0 0.42-0.19 0.42-0.42 0-0.23-0.19-0.42-0.42-0.42-0.23 0-0.42 0.19-0.42 0.42 0 0.23 0.19 0.42 0.42 0.42m0.48 3.43 0-0.2c0-0.2-0.17-0.37-0.37-0.37l-0.2 0c-0.21 0-0.37 0.17-0.37 0.37l0 0.2c0 0.21 0.17 0.37 0.37 0.37l0.2 0c0.21 0 0.37-0.17 0.37-0.37m0.2-0.56 0.51 0c0.12-0.04 0.21-0.16 0.21-0.3l0-0.36c0-0.17-0.14-0.32-0.3-0.32l-0.32 0c-0.17 0-0.3 0.14-0.3 0.32l0 0.36c0 0.14 0.09 0.26 0.21 0.3m0.73 0.75c0 0.1 0.09 0.19 0.19 0.19l0.59 0c0.1 0 0.19-0.08 0.19-0.19l0-0.57c0-0.1-0.09-0.19-0.19-0.19l-0.58 0c-0.1 0-0.19 0.09-0.19 0.19l0 0.57zm0.07-3.18c0-0.25-0.21-0.46-0.46-0.46-0.25 0-0.46 0.21-0.46 0.46 0 0.25 0.21 0.46 0.46 0.46 0.25 0 0.46-0.21 0.46-0.46m-0.09 0.92 0 0.17c0 0.16 0.09 0.3 0.22 0.37l0.55 0c0.13-0.07 0.22-0.21 0.22-0.37l0-0.17c0-0.24-0.19-0.43-0.43-0.43l-0.12 0c-0.24 0-0.43 0.2-0.43 0.43m0.98 1.22c0 0.14 0.09 0.26 0.21 0.3l0.51 0c0.12-0.04 0.21-0.16 0.21-0.3l0-0.36c0-0.17-0.14-0.32-0.3-0.32l-0.32 0c-0.17 0-0.3 0.14-0.3 0.32l0 0.36zm-9.52 0.7c0-0.22-0.18-0.4-0.41-0.4l-0.14 0c-0.22 0-0.4 0.18-0.4 0.41l0 0.25c0 0.16 0.14 0.29 0.32 0.29l0.32 0c0.17 0 0.32-0.13 0.32-0.29l0-0.25zm-0.48-2.26c-0.24 0-0.44 0.2-0.44 0.44 0 0.24 0.2 0.44 0.44 0.44 0.24 0 0.44-0.2 0.44-0.44 0-0.24-0.2-0.44-0.44-0.44m0.01-1.85c-0.23 0-0.42 0.19-0.42 0.42 0 0.23 0.19 0.42 0.42 0.42 0.23 0 0.42-0.19 0.42-0.42 0-0.23-0.19-0.42-0.42-0.42m0-1.89c-0.22 0-0.39 0.18-0.39 0.4 0 0.22 0.18 0.4 0.4 0.4 0.22 0 0.4-0.18 0.4-0.39 0-0.22-0.18-0.39-0.39-0.39m0.01-1.83c-0.19 0-0.34 0.16-0.34 0.35 0 0.19 0.16 0.35 0.35 0.35 0.19 0 0.35-0.15 0.35-0.35 0-0.19-0.15-0.34-0.34-0.34m-0.01-1.85c-0.15 0-0.27 0.12-0.27 0.27 0 0.15 0.12 0.27 0.27 0.27 0.15 0 0.27-0.12 0.27-0.27 0-0.15-0.12-0.27-0.27-0.27m-0.29-1.84c-0.12 0-0.22 0.1-0.22 0.22 0 0.12 0.1 0.21 0.22 0.21 0.12 0 0.22-0.1 0.22-0.21 0-0.12-0.1-0.22-0.21-0.22m-0.66 8.33c-0.23 0-0.42 0.19-0.42 0.42 0 0.23 0.19 0.42 0.42 0.42 0.23 0 0.42-0.19 0.42-0.42 0-0.23-0.19-0.42-0.42-0.42m0-1.87c-0.22 0-0.4 0.18-0.4 0.4 0 0.22 0.18 0.4 0.41 0.4 0.22 0 0.4-0.18 0.4-0.4 0-0.22-0.18-0.4-0.4-0.4m0.05-5.55c-0.14 0-0.26 0.11-0.26 0.26 0 0.14 0.12 0.26 0.26 0.26 0.14 0 0.26-0.11 0.26-0.25 0-0.14-0.11-0.26-0.25-0.26m-0.34 2.18c0 0.16 0.13 0.3 0.3 0.3 0.16 0 0.3-0.13 0.3-0.3 0-0.16-0.13-0.3-0.29-0.3-0.16 0-0.3 0.13-0.3 0.3m-0.16 1.89c0 0.2 0.16 0.36 0.36 0.36 0.2 0 0.36-0.16 0.36-0.36 0-0.2-0.16-0.36-0.36-0.36-0.2 0-0.36 0.16-0.36 0.36m-0.19-3.13c-0.15 0-0.27 0.12-0.27 0.27 0 0.15 0.12 0.27 0.27 0.27 0.15 0 0.27-0.12 0.27-0.27 0-0.15-0.12-0.27-0.27-0.27m-0.64 2.19c0 0.19 0.16 0.35 0.35 0.35 0.19 0 0.35-0.15 0.35-0.35 0-0.19-0.15-0.34-0.35-0.34-0.19 0-0.34 0.16-0.34 0.35m-0.02-1.25c-0.16 0-0.3 0.13-0.3 0.3 0 0.16 0.13 0.3 0.3 0.3 0.16 0 0.3-0.13 0.3-0.3 0-0.16-0.13-0.3-0.3-0.3m-0.6 3.67c-0.23 0-0.42 0.19-0.42 0.42 0 0.23 0.19 0.42 0.42 0.42 0.23 0 0.42-0.19 0.42-0.42 0-0.23-0.19-0.42-0.42-0.42m-0.07-1.85c-0.2 0-0.36 0.16-0.36 0.36 0 0.2 0.16 0.36 0.36 0.36 0.2 0 0.36-0.16 0.36-0.36 0-0.2-0.16-0.36-0.36-0.36m-0.04-0.82c-0.12 0-0.22 0.1-0.22 0.22 0 0.12 0.1 0.22 0.22 0.22 0.12 0 0.21-0.1 0.21-0.21 0-0.12-0.09-0.21-0.21-0.21m0.11 5.46c0.25 0 0.46-0.2 0.46-0.46 0-0.25-0.21-0.46-0.46-0.46-0.25 0-0.46 0.21-0.46 0.46 0 0.25 0.21 0.46 0.46 0.46m-0.96-0.03c-0.27 0-0.48 0.22-0.48 0.49 0 0.27 0.22 0.48 0.49 0.48 0.27 0 0.49-0.22 0.49-0.48 0-0.27-0.22-0.48-0.48-0.48m0.01-1.84c-0.25 0-0.46 0.21-0.46 0.46 0 0.25 0.21 0.46 0.46 0.46 0.25 0 0.46-0.21 0.46-0.46 0-0.25-0.2-0.46-0.46-0.46m0.05-1.85c-0.22 0-0.39 0.18-0.39 0.4 0 0.22 0.18 0.4 0.4 0.4 0.22 0 0.39-0.18 0.39-0.39 0-0.22-0.18-0.39-0.39-0.39m-0.71 0.99c-0.2 0-0.37 0.17-0.37 0.37 0 0.21 0.17 0.37 0.37 0.37 0.21 0 0.37-0.17 0.37-0.37 0-0.2-0.17-0.37-0.37-0.37m-0.76 1.14c-0.12 0-0.21 0.1-0.21 0.22 0 0.12 0.1 0.22 0.22 0.22 0.12 0 0.22-0.1 0.22-0.21 0-0.12-0.1-0.21-0.22-0.21m-0.97 2.06c0 0.27 0.22 0.48 0.49 0.48 0.27 0 0.48-0.22 0.48-0.48 0-0.27-0.22-0.48-0.48-0.48-0.27 0-0.48 0.22-0.48 0.49m-0.22 0.56-0.26 0c-0.14 0-0.25 0.11-0.25 0.25l0 0.26c0 0.14 0.11 0.25 0.25 0.25l0.26 0c0.14 0 0.25-0.11 0.25-0.25l0-0.26c0-0.14-0.11-0.25-0.25-0.25m1.66-1.02c0.25 0 0.46-0.2 0.46-0.46 0-0.25-0.21-0.46-0.46-0.46-0.25 0-0.46 0.21-0.46 0.46 0 0.25 0.21 0.46 0.46 0.46m-0.46 1.56c0 0.17 0.14 0.31 0.31 0.31l0.33 0c0.17 0 0.31-0.14 0.31-0.31l0-0.32c0-0.17-0.14-0.31-0.31-0.31l-0.32 0c-0.17 0-0.31 0.14-0.31 0.31l0 0.33zm2.38 0.35c0.28 0 0.5-0.22 0.5-0.5 0-0.28-0.22-0.5-0.5-0.5-0.28 0-0.5 0.22-0.5 0.5 0 0.28 0.22 0.5 0.5 0.5m1.34-5.23c0-0.22-0.18-0.39-0.39-0.39-0.22 0-0.39 0.18-0.39 0.4 0 0.22 0.18 0.4 0.4 0.4 0.22 0 0.4-0.18 0.4-0.39m-0.4 1.45c-0.25 0-0.46 0.21-0.46 0.46 0 0.25 0.21 0.46 0.46 0.46 0.25 0 0.46-0.21 0.46-0.46 0-0.25-0.21-0.46-0.46-0.46m0 2.8c0.26 0 0.47-0.21 0.47-0.47 0-0.26-0.21-0.47-0.47-0.47-0.26 0-0.47 0.21-0.47 0.47 0 0.26 0.21 0.47 0.47 0.47m0.95 0.95c0.27 0 0.49-0.22 0.49-0.49 0-0.27-0.22-0.49-0.49-0.49-0.27 0-0.49 0.22-0.49 0.49 0 0.27 0.22 0.49 0.49 0.49M0.12 0.76C0.03 0.76-0.04 0.83-0.04 0.92l0 0.56c0 0.13-0.11 0.24-0.24 0.24l-0.51 0c-0.13 0-0.24-0.11-0.24-0.24L-1.03 0.95c0-0.09-0.07-0.16-0.16-0.16l-0.66 0C-1.96 0.8-2.05 0.89-2.05 1l0 0.56 0 0C-2.06 1.64-2.13 1.7-2.21 1.7l-0.63 0c-0.09 0-0.16-0.07-0.16-0.16l0-0.62c0-0.06 0.06-0.13 0.11-0.13l0.71 0c0.07 0 0.13-0.06 0.13-0.12l0-0.7c0-0.07-0.06-0.13-0.13-0.13l-0.71 0c-0.07 0-0.13 0.06-0.13 0.13l0 0.7c0 0.08 0.05 0.09 0.05 0.09l-0.92 0c-0.1 0-0.19-0.08-0.19-0.19l0-0.62c0-0.07 0-0.12-0.07-0.12l-0.72 0c-0.12 0-0.22 0.1-0.22 0.22l0 0.51c0 0.12 0.1 0.22 0.22 0.22l0.59 0c0.1 0 0.18-0.07 0.21-0.16l0 1.01c-0.01 0.06-0.06 0.1-0.12 0.1l-0.84 0c-0.07 0-0.12 0.06-0.12 0.13 0 0 0 0.67 0 0.67 0 0.1-0.08 0.16-0.15 0.16l-0.64 0c-0.09 0-0.15-0.07-0.15-0.16L-6.09 1.89c0-0.09-0.07-0.16-0.16-0.16l-0.63 0c-0.08 0-0.16 0.07-0.16 0.16l0 0.64c0 0.09 0.07 0.16 0.16 0.16l0.78 0c0 0 0 0 0 0l0 0.71c0 0.14-0.11 0.25-0.25 0.25l-0.45 0c-0.14 0-0.25-0.11-0.25-0.25l0-0.53 0 0C-7.06 2.77-7.14 2.69-7.24 2.69l-0.57 0c-0.1 0-0.18 0.08-0.19 0.18l0 0.62c0 0.09-0.07 0.16-0.15 0.16l-0.64 0c-0.08 0-0.15-0.07-0.16-0.15 0 0 0 0 0 0l0-0.64c0-0.08-0.07-0.15-0.16-0.15l-0.63 0c-0.09 0-0.16 0.07-0.16 0.16l0 0.58c0 0.12-0.1 0.22-0.22 0.22l-0.51 0c-0.12 0-0.22-0.1-0.22-0.22l0-0.52c0-0.12 0.1-0.22 0.22-0.22l0.52 0c0.12 0 0.21-0.1 0.21-0.21l0-0.53c0-0.12-0.09-0.21-0.21-0.21l-0.52 0c-0.12 0-0.21 0.1-0.21 0.21l0 0.53c0 0.12-0.1 0.21-0.21 0.21l-0.53 0c-0.12 0-0.21-0.1-0.21-0.21l0-0.74-0.65 0c-0.17 0-0.3-0.14-0.3-0.3l0-0.64c0 0 0 0 0 0l0.83 0c0.06 0 0.11-0.05 0.11-0.11l0-0.5c0-0.19-0.15-0.34-0.34-0.34l-0.26 0c-0.19 0-0.34 0.15-0.34 0.34l0 0 0 0.31c0 0.17-0.14 0.3-0.3 0.3l-0.35 0c-0.17 0-0.3-0.14-0.3-0.3l0-0.31c0-0.24-0.1-0.33-0.27-0.33l-0.64 0 0-0.7c0-0.15-0.13-0.28-0.28-0.28l-0.41 0c-0.15 0-0.28 0.13-0.28 0.28l0 0.38c0 0.17-0.14 0.3-0.3 0.3l-0.35 0c-0.17 0-0.3-0.14-0.3-0.3l0-0.38c0-0.15-0.13-0.28-0.28-0.28l-0.41 0c-0.15 0-0.28 0.13-0.28 0.28l0 0.39c-0.01 0.16-0.14 0.29-0.3 0.29l-0.34 0c-0.17 0-0.3-0.14-0.3-0.3l0-0.44c0-0.12-0.1-0.22-0.22-0.22l-0.51 0c-0.12 0-0.22 0.1-0.22 0.22l0 0.44c0 0.17-0.14 0.3-0.3 0.3l-0.34 0c-0.17 0-0.3-0.14-0.3-0.3l0-0.48c0-0.09-0.07-0.16-0.16-0.16l-0.26 0 10.31-18.13 7.63 13.5c-0.01 0-0.03 0-0.04 0-0.2 0-0.36 0.16-0.36 0.36 0 0.2 0.16 0.36 0.36 0.36 0.15 0 0.28-0.09 0.33-0.22l1.8 3.17c-0.17 0-0.3 0.14-0.3 0.32l0 0.36c0 0.14 0.09 0.26 0.21 0.3l0.51 0c0.05 0 0.1-0.06 0.1-0.06l1.09 1.92-0.73 0z" class="s0"/>
          </g>
          <g transform="translate(393.9086,90.0957)">
            <path inkscape:connector-curvature="0" d="M0 0 0.04 0 0.56 0.91 0 0.91c-0.1 0-0.18-0.08-0.18-0.18l0-0.55C-0.18 0.08-0.1 0 0 0" class="s0"/>
          </g>
          <g transform="translate(336.4588,49.6579)">
            <path inkscape:connector-curvature="0" d="m0 0 1.18 0 0 0.32-2.72 0 0-0.32 1.18 0 0-3.21 0.36 0L0 0Zm1.84-3.21 0.36 0 0 1.67 1.93 0 0-1.67 0.36 0 0 3.53-0.36 0 0-1.53-1.93 0 0 1.53-0.36 0 0-3.53zm3.92 1.68 1.71 0 0 0.32-1.71 0 0 1.21 1.83 0 0 0.32-2.19 0 0-3.53 2.25 0 0 0.32-1.89 0 0 1.36zm5.9-1.63c0.17 0.09 0.31 0.21 0.41 0.35 0.1 0.14 0.17 0.29 0.21 0.46 0.04 0.17 0.06 0.32 0.06 0.47l0 2.22-0.36 0 0-2.18c0-0.14-0.01-0.28-0.05-0.42-0.03-0.13-0.09-0.26-0.16-0.36-0.07-0.1-0.17-0.19-0.29-0.26-0.12-0.06-0.28-0.1-0.45-0.1-0.18 0-0.33 0.03-0.45 0.1-0.12 0.07-0.22 0.15-0.3 0.26-0.07 0.1-0.13 0.22-0.16 0.36-0.03 0.14-0.05 0.27-0.05 0.42l0 2.18-0.36 0 0-2.22c0-0.15 0.02-0.3 0.06-0.47 0.04-0.16 0.11-0.32 0.21-0.45 0.1-0.14 0.24-0.25 0.4-0.35 0.17-0.09 0.39-0.14 0.65-0.14 0.26 0 0.48 0.05 0.65 0.14m1.94 3.49-0.45 0 0-3.53 0.36 0 0 3.04 0.01 0 2.06-3.04 0.45 0 0 3.53-0.36 0 0-3.01-0.01 0-2.06 3.01zm3.63 0-0.36 0 0-3.53 0.36 0 0 3.53zm1 0-0.39 0 1.35-3.53 0.38 0 1.35 3.53-0.38 0-1.15-3.07-0.01 0-1.15 3.07zm3.58-1.85 1.71 0 0 0.32-1.71 0 0 1.21 1.83 0 0 0.32-2.19 0 0-3.53 2.25 0 0 0.32-1.89 0 0 1.36zm3-0.03 0.6 0 0.98-1.65 0.44 0-1.03 1.68c0.13 0.01 0.25 0.04 0.36 0.09 0.11 0.05 0.21 0.11 0.28 0.19 0.08 0.08 0.14 0.17 0.19 0.28 0.05 0.11 0.07 0.23 0.07 0.36 0 0.17-0.03 0.32-0.09 0.44-0.06 0.12-0.14 0.22-0.25 0.29-0.11 0.08-0.24 0.13-0.38 0.16-0.15 0.03-0.31 0.05-0.48 0.05l-1.04 0 0-3.53 0.36 0 0 1.65zm0 1.57 0.64 0c0.13 0 0.25-0.01 0.36-0.04 0.11-0.02 0.2-0.06 0.28-0.11 0.08-0.05 0.14-0.11 0.18-0.19 0.04-0.08 0.06-0.18 0.06-0.29 0-0.21-0.08-0.37-0.23-0.47-0.16-0.1-0.38-0.16-0.67-0.16l-0.62 0 0 1.26zm4.67-0.03c-0.09 0.12-0.21 0.22-0.38 0.3-0.17 0.09-0.37 0.13-0.61 0.13-0.13 0-0.26-0.02-0.39-0.05-0.13-0.04-0.25-0.09-0.36-0.17-0.11-0.08-0.2-0.18-0.27-0.3-0.07-0.12-0.1-0.27-0.1-0.44 0-0.16 0.03-0.29 0.08-0.4 0.06-0.11 0.13-0.2 0.22-0.28 0.09-0.07 0.19-0.13 0.3-0.18 0.11-0.05 0.23-0.09 0.35-0.12 0.11-0.04 0.22-0.07 0.32-0.11 0.1-0.04 0.19-0.08 0.27-0.14 0.08-0.06 0.14-0.12 0.19-0.2 0.05-0.08 0.07-0.18 0.07-0.31 0-0.11-0.02-0.21-0.07-0.3-0.05-0.08-0.11-0.16-0.18-0.21-0.07-0.06-0.16-0.1-0.25-0.13-0.09-0.03-0.18-0.04-0.28-0.04-0.18 0-0.35 0.04-0.49 0.13-0.14 0.08-0.24 0.19-0.32 0.32l-0.31-0.23c0.07-0.09 0.14-0.16 0.22-0.23 0.09-0.07 0.17-0.12 0.27-0.16 0.1-0.04 0.2-0.08 0.3-0.1 0.11-0.02 0.21-0.03 0.32-0.03 0.14 0 0.28 0.02 0.42 0.06 0.14 0.04 0.26 0.1 0.37 0.19 0.11 0.08 0.19 0.19 0.26 0.32 0.07 0.13 0.1 0.28 0.1 0.46 0 0.18-0.03 0.32-0.09 0.44-0.06 0.12-0.14 0.21-0.24 0.29-0.1 0.07-0.21 0.14-0.34 0.18-0.12 0.05-0.25 0.09-0.37 0.13-0.1 0.03-0.19 0.07-0.29 0.1-0.09 0.04-0.17 0.08-0.24 0.13-0.07 0.05-0.13 0.12-0.17 0.19-0.04 0.07-0.07 0.17-0.07 0.28 0 0.11 0.02 0.21 0.07 0.29 0.04 0.08 0.1 0.15 0.18 0.21 0.08 0.05 0.16 0.1 0.24 0.12 0.09 0.03 0.18 0.04 0.27 0.04 0.17 0 0.31-0.03 0.43-0.1 0.12-0.06 0.22-0.15 0.3-0.26l0.28 0.23zm1.16 0.34-0.36 0 0-3.53 0.36 0 0 3.53zM32.67 0l1.18 0 0 0.32-2.72 0 0-0.32 1.18 0 0-3.21 0.36 0 0 3.21zm3.28-1.69 1.32 2.01-0.42 0-1.07-1.71-1.06 1.71-0.45 0 1.32-2.01 0-1.52 0.36 0 0 1.52zm6.37 0.99c-0.09 0.23-0.22 0.42-0.39 0.59-0.17 0.16-0.36 0.29-0.58 0.39-0.22 0.09-0.47 0.14-0.73 0.14-0.26 0-0.51-0.04-0.73-0.14-0.22-0.09-0.42-0.22-0.58-0.39-0.16-0.16-0.29-0.36-0.39-0.59-0.09-0.23-0.14-0.47-0.14-0.74 0-0.27 0.05-0.52 0.14-0.74 0.09-0.23 0.22-0.42 0.39-0.59 0.16-0.16 0.36-0.29 0.58-0.38 0.22-0.09 0.47-0.14 0.73-0.14 0.26 0 0.51 0.05 0.73 0.14 0.23 0.09 0.42 0.22 0.59 0.39 0.16 0.17 0.29 0.36 0.39 0.59 0.09 0.23 0.14 0.47 0.14 0.74 0 0.27-0.04 0.52-0.14 0.74m-0.34-1.33c-0.07-0.19-0.16-0.35-0.29-0.49-0.13-0.14-0.28-0.25-0.46-0.33-0.18-0.08-0.39-0.12-0.61-0.12-0.23 0-0.43 0.04-0.61 0.12-0.18 0.08-0.33 0.2-0.46 0.33-0.12 0.14-0.22 0.3-0.29 0.49-0.07 0.19-0.1 0.38-0.1 0.59 0 0.21 0.03 0.4 0.1 0.59 0.07 0.19 0.16 0.35 0.29 0.49 0.13 0.14 0.28 0.25 0.46 0.34 0.18 0.08 0.38 0.12 0.61 0.12 0.23 0 0.43-0.04 0.61-0.12 0.18-0.08 0.34-0.19 0.46-0.34 0.13-0.14 0.22-0.3 0.29-0.49 0.07-0.19 0.1-0.38 0.1-0.59 0-0.21-0.03-0.4-0.1-0.59m1.64 0.5 1.65 0 0 0.32-1.65 0 0 1.22 1.77 0 0 0.32-2.13 0 0-3.53 0.36 0 0 1.67zm3.71 1.86-0.38 0 1.04-3.53 0.42 0 0.89 3.03 0.01 0 0.89-3.03 0.42 0 1.04 3.53-0.38 0-0.86-3.04-0.01 0-0.88 3.04-0.43 0-0.88-3.04-0.01 0-0.87 3.04zm4.93-2.61 1.83 0 0.39-0.93 0.4 0-1.52 3.53-0.35 0-1.53-3.53 0.4 0 0.38 0.93zm0.91 2.21 0.78-1.88-1.56 0 0.78 1.88zm2.63-1.48 0.6 0 0.98-1.65 0.44 0-1.03 1.68c0.13 0.01 0.25 0.04 0.36 0.09 0.11 0.05 0.21 0.11 0.29 0.19 0.08 0.08 0.14 0.17 0.19 0.28 0.05 0.11 0.07 0.23 0.07 0.36 0 0.17-0.03 0.32-0.09 0.44-0.06 0.12-0.14 0.22-0.25 0.29-0.11 0.08-0.24 0.13-0.38 0.16-0.15 0.03-0.31 0.05-0.48 0.05l-1.04 0 0-3.53 0.36 0 0 1.65zm0 1.57 0.64 0c0.13 0 0.25-0.01 0.36-0.04 0.11-0.02 0.2-0.06 0.28-0.11 0.08-0.05 0.14-0.11 0.18-0.19 0.04-0.08 0.07-0.18 0.07-0.29 0-0.21-0.08-0.37-0.23-0.47-0.16-0.1-0.38-0.16-0.67-0.16l-0.62 0 0 1.26zm2.8 0.31-0.38 0 1.04-3.53 0.42 0 0.89 3.03 0.01 0 0.89-3.03 0.42 0 1.04 3.53-0.38 0-0.86-3.04-0.01 0-0.88 3.04-0.43 0-0.88-3.04-0.01 0-0.87 3.04zm5.35 0-0.36 0 0-3.53 0.36 0 0 3.53zm3.68-2.78c-0.12-0.18-0.28-0.32-0.46-0.4-0.18-0.08-0.38-0.13-0.58-0.13-0.23 0-0.43 0.04-0.61 0.12-0.18 0.08-0.34 0.2-0.46 0.34-0.13 0.14-0.22 0.31-0.29 0.49-0.07 0.19-0.1 0.38-0.1 0.59 0 0.2 0.03 0.4 0.1 0.59 0.07 0.19 0.16 0.35 0.29 0.49 0.13 0.14 0.28 0.25 0.46 0.34 0.18 0.08 0.39 0.12 0.62 0.12 0.11 0 0.22-0.01 0.32-0.04 0.1-0.02 0.19-0.06 0.27-0.1 0.08-0.04 0.16-0.09 0.22-0.15 0.06-0.06 0.11-0.11 0.15-0.17l0.3 0.22c-0.06 0.09-0.13 0.17-0.22 0.23-0.09 0.07-0.19 0.13-0.3 0.18-0.11 0.05-0.23 0.09-0.35 0.12-0.12 0.03-0.25 0.04-0.38 0.04-0.26 0-0.51-0.04-0.73-0.14-0.22-0.09-0.42-0.22-0.58-0.39-0.16-0.16-0.29-0.36-0.39-0.59-0.09-0.23-0.14-0.47-0.14-0.74 0-0.27 0.05-0.52 0.14-0.74 0.09-0.23 0.22-0.42 0.38-0.59 0.16-0.16 0.36-0.29 0.58-0.38 0.23-0.09 0.47-0.14 0.74-0.14 0.16 0 0.31 0.02 0.44 0.05 0.14 0.04 0.26 0.08 0.37 0.14 0.11 0.06 0.21 0.13 0.29 0.21 0.08 0.08 0.16 0.17 0.22 0.25l-0.28 0.18zm1.38 2.78-0.36 0 0-3.53 0.36 0 0 1.88 0.01 0 1.76-1.88 0.53 0-1.88 1.93 1.78 1.6-0.51 0-1.68-1.59 0 0 0 1.59z" class="s0"/>
          </g>
        </g>
      </g>
    </g>
  </g>
</svg>
